<?xml version="1.0" encoding="UTF-8"?>
<svg id="Layer_1" xmlns="http://www.w3.org/2000/svg" version="1.1" viewBox="0 0 100 100">
  <!-- Generator: Adobe Illustrator 29.3.1, SVG Export Plug-In . SVG Version: 2.1.0 Build 151)  -->
  <defs>
    <style>
      .st0 {
        fill: #ff7400;
      }
    </style>
  </defs>
  <g>
    <path class="st0" d="M30.02,40.52c-3.28-3.53-7.08-6.48-10.35-10.01s-6.08-7.84-6.67-12.75c-.12-1.03-.14-2.12.31-3.05.34-.71.92-1.26,1.5-1.76,2.94-2.51,6.51-4.26,10.27-4.62s7.69.73,10.58,3.31c5.16,4.61,6.08,12.69,10.26,18.3.12-6.26,2.12-12.47,5.63-17.52.46-.67,1.05-1.37,1.84-1.42,1.21-.07,1.92,1.39,2.26,2.62,1.34,4.84,1.84,9.93,1.5,14.96,3.59-3.23,7.17-6.47,10.76-9.7,2.36-2.12,4.74-4.27,7.52-5.73s6.01-2.19,9-1.32c3.94,1.15,6.87,5.05,7.61,9.3s-.51,8.72-2.82,12.28-5.62,6.3-9.16,8.47c-1.86,1.14-3.83,2.15-5.41,3.7-.28.27-.55.58-.64.97-.18.76.4,1.46.92,2.01,4,4.24,7.64,8.95,10.16,14.32,2.52,5.37,3.9,11.43,3.29,17.39-.33,3.18-1.33,6.47-3.65,8.52-2.04,1.79-4.79,2.36-7.43,2.65-3.01.33-6.04.38-9.06.15-2.11-.16-4.28-.49-6.11-1.61-2.53-1.55-4.1-4.47-4.78-7.48s-.57-6.14-.47-9.23c.14,2.56.27,5.24-.73,7.58s-3.52,4.17-5.83,3.39c-2-.67-3.11-2.98-3.42-5.17s-.04-4.45-.36-6.64c.45,2.12.88,4.45-.07,6.39-.26.54-.62,1.02-.99,1.48-5.91,7.39-15.56,11.22-24.61,9.76-1.72-.28-3.45-.75-4.93-1.71-2.1-1.36-3.54-3.6-4.79-5.85-1.87-3.38-3.49-7.11-3.37-11.03.11-3.6,1.67-6.95,3.19-10.17,1.82-3.84,3.66-7.73,6.28-11.01,3.59-4.51,8.47-7.68,13.48-10.27"/>
    <path class="st0" d="M31.79,38.75c-3.65-3.89-7.96-7.14-11.42-11.21-1.52-1.78-2.87-3.8-3.79-5.96-.41-.98-.72-2.02-.94-3.06-.18-.85-.48-2.09,0-2.88s1.49-1.4,2.22-1.9c1-.69,2.06-1.32,3.18-1.8,2.07-.9,4.33-1.29,6.57-1.11,4.45.34,7.59,3.28,9.6,7.05,2.34,4.38,3.59,9.3,6.54,13.35,1.42,1.94,4.59,1.37,4.66-1.26.15-5.61,1.81-11.53,5.17-16.09.02-.03.39-.58.4-.49,0,.04-1.4.6-1.08,0-.02.05.23.61.28.77.49,1.54.79,3.16,1.05,4.76.53,3.2.6,6.47.4,9.69-.15,2.29,2.77,3.12,4.27,1.77,4.44-4,8.79-8.14,13.36-11.99,3.34-2.82,8.43-6.03,12.82-3.54,3.79,2.15,5.19,6.94,4.48,11.04-.84,4.84-3.9,8.82-7.71,11.79-1.96,1.52-4.17,2.64-6.23,4.01-2.37,1.57-5.29,3.9-3.67,7.07.56,1.09,1.53,1.96,2.35,2.86.96,1.06,1.89,2.15,2.78,3.26,1.57,1.96,2.98,4.05,4.23,6.23,2.64,4.62,4.45,9.82,4.66,15.17.16,4.14-.28,9.88-4.67,11.76-2.61,1.12-5.77,1.18-8.55,1.22s-6.04.16-8.63-1c-5.38-2.4-4.92-10.16-4.75-14.96h-5c.11,2.03.3,4.16-.35,6.12-.35,1.05-1.41,2.69-2.72,2.53-1.19-.15-1.68-1.86-1.89-2.82-.47-2.17-.11-4.47-.39-6.67l-4.91.66c.26,1.27.59,2.64.33,3.93-.28,1.38-1.6,2.57-2.54,3.53-1.92,1.95-4.13,3.54-6.57,4.77-4.67,2.36-10.41,3.3-15.52,1.97-2.95-.77-4.63-2.8-6.11-5.35s-3.01-5.57-3.36-8.65.72-6.25,2.03-9.11,2.72-5.89,4.35-8.67c3.6-6.13,9.06-10.1,15.27-13.34,2.85-1.49.33-5.8-2.52-4.32-6.51,3.39-12.42,7.72-16.39,14.01-1.99,3.16-3.59,6.6-5.13,10s-2.99,7.36-2.62,11.34,1.88,7.4,3.75,10.74,4.14,6.2,7.74,7.63c6.37,2.54,14.13,1.29,20.18-1.51,3.36-1.55,6.46-3.81,8.98-6.52,1.38-1.49,2.81-3.15,3.29-5.17.52-2.19.12-4.43-.33-6.59-.57-2.71-5.27-2.15-4.91.66.39,3.11-.15,6.37.98,9.36,1.03,2.72,3.22,5.06,6.3,5.13,2.82.07,5.46-1.9,6.75-4.32,1.53-2.86,1.49-6.18,1.31-9.33s-4.89-3.23-5,0c-.2,5.92-.11,12.51,4.26,17.08,2.22,2.33,5.21,3.26,8.33,3.62s6.27.35,9.38.07,6.12-.7,8.68-2.36c2.41-1.56,3.95-3.91,4.89-6.59,1.96-5.62,1.24-12.29-.47-17.87-1.8-5.87-4.99-11.13-8.8-15.9-.89-1.12-1.82-2.2-2.78-3.26-.33-.37-.99-1.41-1.42-1.54l-.03-.07c-.17-.36-.17-.06.02.91.08.02.89-.79,1-.87,2.19-1.65,4.71-2.82,6.91-4.48,4.67-3.51,8.57-8.2,9.9-14.01,1.26-5.51.11-11.65-4.12-15.63-5.23-4.93-12.59-3.85-18.13-.04-2.83,1.94-5.33,4.33-7.87,6.63-2.91,2.62-5.81,5.24-8.72,7.86l4.27,1.77c.28-4.31-.04-8.65-.92-12.88-.36-1.73-.7-3.66-1.72-5.14-1.17-1.71-3.24-2.6-5.2-1.66-1.76.84-2.81,2.76-3.76,4.39s-1.75,3.39-2.42,5.17c-1.39,3.66-2.09,7.57-2.2,11.48l4.66-1.26c-2.99-4.1-4.23-9.09-6.63-13.51-2.71-5.01-7.12-8.53-12.86-9.26s-11.63,1.64-15.85,5.52c-4.63,4.26-1.42,11.85,1.48,16.21,3.79,5.7,9.39,9.7,14.03,14.64,2.21,2.35,5.74-1.19,3.54-3.54h0Z"/>
  </g>
  <path class="st0" d="M45.83,10.26c.06-.03.13-.04.19-.05l-.66.09c.1,0,.19,0,.29,0l-.66-.09c.1.02.19.05.29.09l-.6-.25c.16.08.31.17.45.28l-.51-.39c.59.48,1.08,1.08,1.55,1.68l-.39-.51c.78,1.01,1.43,2.12,1.93,3.29l-.25-.6c.17.4.32.81.46,1.23.2.62.58,1.16,1.15,1.49.54.31,1.33.45,1.93.25,1.24-.4,2.18-1.74,1.75-3.08-.55-1.67-1.32-3.3-2.35-4.72-.56-.78-1.16-1.53-1.84-2.21-1.04-1.05-2.56-1.84-4.06-1.34-.62.21-1.16.58-1.49,1.15-.31.54-.45,1.33-.25,1.93.4,1.23,1.75,2.19,3.08,1.75h0Z"/>
  <path class="st0" d="M60,15.75c.16-.73.38-1.45.67-2.14l-.25.6c.41-.97.94-1.88,1.57-2.72l-.39.51c.62-.8,1.33-1.52,2.13-2.15l-.51.39c.09-.07.18-.14.27-.2.54-.4.96-.82,1.15-1.49.16-.6.09-1.4-.25-1.93s-.86-1-1.49-1.15-1.4-.14-1.93.25c-1.53,1.13-2.81,2.43-3.85,4.03-.92,1.41-1.59,3.03-1.94,4.68-.14.66-.09,1.33.25,1.93.3.52.9,1.01,1.49,1.15,1.26.29,2.78-.38,3.08-1.75h0Z"/>
</svg>