<?xml version="1.0" encoding="UTF-8"?>
<svg id="Layer_1" xmlns="http://www.w3.org/2000/svg" version="1.1" viewBox="0 0 1600 500">
  <!-- Generator: Adobe Illustrator 29.3.1, SVG Export Plug-In . SVG Version: 2.1.0 Build 151)  -->
  <defs>
    <style>
      .st0 {
        fill: #231f20;
      }

      .st1 {
        fill: #0008aa;
      }

      .st2 {
        fill: #f1f1f1;
        stroke: #fff;
        stroke-miterlimit: 10;
      }

      .st3 {
        fill: #00af03;
      }

      .st4 {
        fill: #00acaf;
      }
    </style>
  </defs>
  <rect class="st2" width="1600" height="500"/>
  <g>
    <path class="st4" d="M87.35-1.12c15.91,7.93,31.1,17.3,45.31,27.98s27.32,22.59,39.31,35.6,23.53,28.24,33.29,43.83c10.38,16.59,19.33,34.04,27.48,51.83s15.78,36.4,23.05,54.84c7.47,18.92,14.54,38.01,20.86,57.34s11.88,38.85,16.32,58.66,7.66,39.32,9.43,59.27c1.76,19.82,2.07,39.79.61,59.65-1.45,19.7-4.69,39.27-10,58.3-1.3,4.67-2.73,9.3-4.28,13.89-1.03,3.06,3.8,4.37,4.82,1.33,6.41-19.01,10.63-38.69,13.02-58.6,2.39-19.9,2.89-40,1.85-60.01s-3.66-40.29-7.5-60.14c-3.88-20.09-9-39.92-14.96-59.48-5.98-19.6-12.81-38.94-20.12-58.09-7.21-18.87-14.77-37.63-22.83-56.15s-16.38-35.94-26.2-53.07-20.26-32.39-32.56-47c-11.53-13.71-24.33-26.35-38.15-37.74-13.89-11.44-28.78-21.65-44.51-30.39-3.85-2.14-7.76-4.19-11.71-6.16-2.87-1.43-5.41,2.88-2.52,4.32h0Z"/>
    <path class="st3" d="M125.95,498.32c8.78-28.31,17.57-56.62,27.02-84.72,9.44-28.06,19.55-55.91,30.96-83.24,10.65-25.51,22.48-50.56,35.9-74.74,12.72-22.93,26.87-45.11,42.68-66.04,15.7-20.78,33.12-40.3,52.28-57.95s41.7-34.33,64.78-48.35c23.69-14.38,48.59-26.69,74.05-37.62,26.68-11.45,53.98-21.44,81.57-30.47,28.33-9.28,56.99-17.53,85.8-25.19,28.84-7.67,57.84-14.76,86.85-21.73,6.98-1.68,13.96-3.35,20.94-5.02,3.13-.75,1.8-5.57-1.33-4.82-29.18,6.98-58.36,13.96-87.42,21.42-28.88,7.42-57.65,15.31-86.14,24.13-28.55,8.84-56.82,18.62-84.55,29.77-25.77,10.37-51.11,21.92-75.41,35.41-24.22,13.45-47.39,28.84-68.66,46.62-20.1,16.8-38.42,35.67-55.02,55.92-16.66,20.33-31.62,42.02-45.08,64.58-13.94,23.37-26.26,47.68-37.35,72.53-12.09,27.09-22.75,54.79-32.57,82.77-9.85,28.04-18.86,56.37-27.71,84.74-2.15,6.88-4.28,13.77-6.42,20.65-.96,3.08,3.87,4.4,4.82,1.33h0Z"/>
    <path class="st4" d="M291.99-6.64c22.29,8.92,43.91,19.47,64.54,31.78,18.54,11.06,36.3,23.44,53.18,36.89s33.12,28.15,48.43,43.56c15.4,15.5,29.98,31.81,43.81,48.72,13.83,16.91,26.9,34.43,39.32,52.4s25.03,37.73,36.63,57.17c12.88,21.56,25.09,43.5,36.89,65.67,11.84,22.25,23.27,44.72,34.54,67.26,11.28,22.56,22.41,45.2,33.65,67.78s22.6,45.09,34.33,67.41c2.84,5.4,5.71,10.8,8.6,16.18,1.52,2.84,5.84.31,4.32-2.52-12.01-22.35-23.57-44.94-34.95-67.61-11.31-22.55-22.45-45.18-33.67-67.77-11.29-22.72-22.66-45.39-34.41-67.88s-23.67-44.47-36.3-66.27c-11.79-20.35-24.11-40.4-37.18-59.95-12.26-18.35-25.17-36.26-38.8-53.61-13.55-17.26-27.83-33.95-42.93-49.87s-30.83-30.91-47.51-44.97c-16.62-14.02-34.09-27.06-52.38-38.81-19.56-12.57-40.07-23.61-61.33-33.02-5.77-2.56-11.6-5-17.46-7.35-1.25-.5-2.75.55-3.08,1.75-.39,1.42.49,2.57,1.75,3.08h0Z"/>
    <path class="st1" d="M501.4,656.64c-.46-18.55-.92-37.11-1.25-55.66-.33-18.56-.52-37.13-.46-55.7s.39-36.93,1.11-55.38,1.83-36.99,3.46-55.44,3.77-36.72,6.58-54.97c2.28-14.79,4.99-29.51,8.14-44.14,3.1-14.37,6.61-28.65,10.53-42.82,3.91-14.16,8.23-28.2,12.93-42.11s9.75-27.57,15.18-41.15c5.43-13.56,11.23-26.97,17.38-40.22,6.19-13.34,12.74-26.51,19.63-39.5s14.06-25.72,21.58-38.3,15.45-25.1,23.64-37.35c8.2-12.26,16.71-24.31,25.52-36.15s17.82-23.33,27.16-34.66,18.99-22.46,28.89-33.34c9.95-10.93,20.16-21.61,30.63-32.04s21.19-20.6,32.15-30.5,22.16-19.53,33.59-28.89c11.31-9.25,22.84-18.23,34.59-26.91,5.75-4.25,11.55-8.42,17.39-12.53,1.1-.78,1.62-2.19.9-3.42-.64-1.09-2.31-1.68-3.42-.9-12.19,8.57-24.16,17.44-35.92,26.6s-23.08,18.43-34.27,28.06-22.26,19.63-33.02,29.85-21.18,20.61-31.39,31.3-20.23,21.72-29.94,32.94-19.05,22.57-28.15,34.21-18.01,23.59-26.57,35.72c-8.54,12.1-16.77,24.41-24.69,36.93-7.91,12.5-15.5,25.21-22.75,38.1s-14.1,25.83-20.64,39.01c-6.53,13.17-12.72,26.51-18.54,40s-11.4,27.4-16.54,41.33-9.78,27.7-14.09,41.74c-4.33,14.11-8.26,28.34-11.77,42.67s-6.6,28.68-9.27,43.15c-3.11,16.85-5.62,33.8-7.64,50.81-2.18,18.38-3.78,36.83-4.92,55.31s-1.83,37.18-2.19,55.79-.38,37.12-.21,55.67c.17,18.65.53,37.29.97,55.94.21,8.99.43,17.97.65,26.96.08,3.21,5.08,3.22,5,0h0Z"/>
    <path class="st1" d="M-21.99,147.45c17.21-1.62,34.5-2.36,51.79-2.24s34.24,1.08,51.28,2.83c17.01,1.75,33.93,4.3,50.72,7.58s33.54,7.31,50.05,12,33.11,10.13,49.33,16.15,32.11,12.6,47.8,19.77,31.52,15.07,46.87,23.4,30.39,17.13,45.16,26.41c14.83,9.32,29.37,19.1,43.61,29.31,14.08,10.1,27.86,20.62,41.32,31.53,13.85,11.23,27.35,22.87,40.57,34.84,13.44,12.17,26.56,24.67,39.4,37.47s25.46,25.98,37.78,39.36c12.27,13.34,24.28,26.92,36.05,40.71,11.83,13.86,23.43,27.93,34.81,42.17,11.32,14.15,22.43,28.47,33.36,42.92,11.04,14.58,21.9,29.3,32.63,44.11,10.69,14.77,21.25,29.64,31.71,44.57,10.5,15,20.9,30.07,31.24,45.18s20.51,30.11,30.72,45.2c4.95,7.32,9.9,14.64,14.84,21.97,1.79,2.65,6.12.15,4.32-2.52-10.23-15.15-20.45-30.29-30.72-45.41-10.33-15.2-20.7-30.37-31.15-45.49-10.41-15.06-20.91-30.06-31.53-44.98s-21.34-29.73-32.23-44.44c-10.96-14.8-22.07-29.48-33.38-44.02s-22.59-28.65-34.21-42.71c-11.6-14.04-23.43-27.89-35.51-41.52-12.07-13.61-24.39-26.99-37-40.11-12.66-13.16-25.6-26.06-38.85-38.63s-26.72-24.74-40.54-36.58c-13.29-11.38-26.92-22.38-40.84-32.98s-28.28-20.88-42.87-30.66c-14.55-9.75-29.41-19.06-44.54-27.89s-30.51-17.13-46.17-24.91c-15.68-7.79-31.62-15.03-47.81-21.71s-32.45-12.69-49.01-18.08-33.04-10.05-49.84-14.05-33.64-7.26-50.65-9.78c-17.15-2.53-34.41-4.32-51.72-5.25s-34.45-1.03-51.67-.26c-8.37.37-16.74.96-25.08,1.74-1.34.13-2.5,1.06-2.5,2.5,0,1.25,1.15,2.63,2.5,2.5h0Z"/>
    <path class="st3" d="M3.66,501.07c5.14-23.82,10.79-47.52,16.95-71.1s12.82-47.02,19.99-70.3,14.35-45.19,22.43-67.48,16.45-43.24,26.14-64.24,20.1-40.78,32.01-60.14c10.98-17.85,23.03-35.06,36.04-51.49,13.11-16.55,27.17-32.35,42.05-47.33s30.61-29.15,47.04-42.44c17.18-13.89,35.16-26.8,53.77-38.7s39.27-23.57,59.82-33.65c5.02-2.46,10.07-4.85,15.15-7.17,1.23-.56,1.53-2.34.9-3.42-.74-1.26-2.19-1.46-3.42-.9-21.03,9.61-41.51,20.41-61.31,32.34-19.35,11.67-38.06,24.41-55.99,38.16-16.88,12.95-33.08,26.76-48.48,41.45-15.33,14.63-29.86,30.09-43.47,46.34s-26.29,33.23-37.93,50.93c-12.28,18.68-23.31,38.14-33.2,58.18s-19.45,42.39-27.78,64.16c-8.4,21.96-15.98,44.23-23.13,66.62s-14.38,46.73-20.81,70.32c-6.43,23.59-12.35,47.31-17.76,71.15-1.31,5.78-2.59,11.57-3.84,17.37-.68,3.14,4.14,4.48,4.82,1.33h0Z"/>
    <path class="st1" d="M382.6,561.18c-8.9-16.97-18.88-33.34-29.47-49.3-10.6-15.96-21.8-31.5-33.18-46.91-10.94-14.81-22.06-29.49-33.48-43.93s-23.05-28.55-35.15-42.34-24.66-27.28-37.72-40.22-26.6-25.35-40.74-37.07c-13.43-11.14-27.4-21.65-41.89-31.38-14.49-9.73-29.51-18.67-45.03-26.65s-31.42-14.96-47.78-20.82c-16.33-5.85-33.08-10.54-50.11-13.87-4.16-.81-8.34-1.54-12.53-2.2-1.33-.21-2.69.34-3.08,1.75-.33,1.19.4,2.87,1.75,3.08,17.09,2.66,33.94,6.69,50.42,11.93s32.3,11.59,47.78,18.98c15.67,7.48,30.87,15.96,45.54,25.26s28.64,19.26,42.16,29.97c14.11,11.18,27.65,23.08,40.67,35.51,13.24,12.63,25.96,25.82,38.23,39.39,12.25,13.55,24.05,27.49,35.53,41.69,11.5,14.22,22.66,28.72,33.61,43.36,11.27,15.07,22.41,30.26,33.08,45.77,10.77,15.65,21.06,31.65,30.38,48.21,2.29,4.07,4.52,8.18,6.69,12.31,1.49,2.85,5.81.33,4.32-2.52h0Z"/>
    <path class="st4" d="M294.82,709.48c7.12-15.03,14.34-30.01,21.64-44.95,7.34-15.01,14.77-29.98,22.29-44.9s15.06-29.65,22.72-44.41c7.7-14.83,15.49-29.61,23.37-44.35s15.78-29.28,23.8-43.85c8.06-14.64,16.21-29.23,24.44-43.77,8.2-14.47,16.48-28.89,24.85-43.26s16.83-28.69,25.37-42.95c8.59-14.34,17.26-28.62,26.02-42.85s17.16-27.72,25.89-41.48c8.6-13.57,17.32-27.07,26.21-40.45s17.86-26.51,27.11-39.54,18.73-25.9,28.5-38.55c9.76-12.62,19.81-25.01,30.19-37.12s20.67-23.48,31.54-34.73c10.24-10.61,20.8-20.91,31.7-30.85s22.03-19.41,33.55-28.51,23.35-17.71,35.53-25.84,24.65-15.73,37.46-22.75c12.8-7.02,25.93-13.46,39.35-19.22,6.49-2.79,13.05-5.4,19.67-7.86,1.27-.47,2.13-1.69,1.75-3.08-.33-1.22-1.8-2.22-3.08-1.75-13.84,5.14-27.42,10.98-40.68,17.46-13.18,6.44-26.05,13.52-38.59,21.14s-24.79,15.83-36.67,24.48-23.6,17.9-34.89,27.49c-11.25,9.55-22.16,19.49-32.73,29.78s-21.24,21.35-31.37,32.49c-10.78,11.86-21.21,24.05-31.31,36.48s-19.99,25.23-29.56,38.17-18.83,26-27.91,39.23c-9.09,13.25-17.97,26.64-26.7,40.12s-17.32,27.05-25.82,40.67-17.6,28.38-26.26,42.65c-8.67,14.28-17.26,28.62-25.76,43s-16.91,28.82-25.24,43.31-16.56,29.03-24.71,43.62-16.21,29.23-24.18,43.91-15.85,29.42-23.64,44.2-15.49,29.61-23.1,44.49-15.13,29.8-22.56,44.77-14.77,29.98-22.01,45.04c-3.52,7.31-7.02,14.64-10.49,21.97-.58,1.22-.34,2.7.9,3.42,1.09.64,2.84.33,3.42-.9h0Z"/>
    <path class="st3" d="M521.79-100.94c14.85,6.89,29.16,14.91,43.02,23.62s27.31,18.1,40.53,27.76c12.09,8.83,24.01,17.9,35.76,27.19s23.37,18.83,34.79,28.56c11.41,9.71,22.65,19.63,33.72,29.72s21.96,20.37,32.69,30.82,21.3,21.07,31.71,31.84c10.42,10.78,20.68,21.72,30.79,32.79s20,22.21,29.77,33.51c9.84,11.37,19.53,22.87,29.09,34.48,9.57,11.63,19.01,23.37,28.32,35.22,9.28,11.81,18.43,23.72,27.46,35.72,9.09,12.08,18.06,24.24,26.91,36.49,8.87,12.26,17.63,24.6,26.29,37.02,8.67,12.42,17.24,24.92,25.72,37.47,8.48,12.56,16.88,25.18,25.2,37.86,8.32,12.68,16.56,25.4,24.73,38.17,8.17,12.76,16.26,25.57,24.3,38.42s16.01,25.7,23.93,38.59c7.91,12.87,15.78,25.77,23.61,38.69,3.78,6.24,7.55,12.48,11.32,18.73,1.66,2.75,5.98.24,4.32-2.52-7.79-12.93-15.61-25.83-23.48-38.72-7.92-12.97-15.87-25.92-23.89-38.83-7.98-12.87-16.02-25.71-24.12-38.51s-16.27-25.58-24.52-38.3-16.64-25.52-25.08-38.19c-8.4-12.61-16.88-25.17-25.46-37.66s-17.24-24.9-26.01-37.24c-8.8-12.39-17.71-24.69-26.74-36.92-8.97-12.15-18.05-24.21-27.26-36.18-9.24-12-18.59-23.92-28.09-35.72s-19.09-23.46-28.84-35.01-19.53-22.84-29.51-34.07-20.09-22.29-30.36-33.22-20.78-21.79-31.41-32.45-21.32-21.05-32.22-31.31c-10.91-10.27-21.98-20.36-33.22-30.25s-22.79-19.71-34.44-29.26-23.53-18.92-35.55-28.05-25.21-18.82-38.17-27.73-27.47-18.16-41.89-26.09c-6.94-3.81-13.99-7.4-21.17-10.73-1.22-.57-2.69-.35-3.42.9-.63,1.08-.33,2.85.9,3.42h0Z"/>
    <path class="st3" d="M622.41,591.96c3.62-15.53,9.67-30.34,16.39-44.76,6.2-13.32,12.78-26.47,19.51-39.53,6.61-12.81,13.44-25.51,20.49-38.09s14.3-25.04,21.76-37.38c7.43-12.27,15.06-24.43,22.9-36.44s15.95-24.02,24.22-35.83c8.23-11.75,16.66-23.36,25.29-34.83s17.44-22.79,26.44-33.96c9.05-11.23,18.28-22.3,27.7-33.22,9.37-10.86,18.93-21.57,28.66-32.11s19.73-21.03,29.86-31.29,20.43-20.35,30.9-30.26,21-19.55,31.75-29.06c10.8-9.55,21.75-18.93,32.88-28.1,11.14-9.18,22.47-18.13,34.05-26.75,11.64-8.65,23.52-16.98,35.7-24.85s24.65-15.3,37.45-22.13c12.6-6.72,25.52-12.89,38.76-18.25s26.55-9.88,40.24-13.5c13.65-3.61,27.55-6.31,41.58-7.85,6.88-.75,13.78-1.24,20.69-1.46,3.21-.1,3.22-5.1,0-5-14.42.46-28.79,2.1-42.96,4.79s-27.69,6.33-41.14,10.87-27.06,10.1-40.12,16.24-25.8,12.98-38.23,20.33-24.86,15.41-36.85,23.78c-12.06,8.41-23.84,17.22-35.4,26.3s-22.49,18.13-33.47,27.51-21.87,19.01-32.56,28.79-21.21,19.74-31.56,29.88c-10.3,10.09-20.43,20.35-30.38,30.78s-19.83,21.13-29.47,31.95c-9.6,10.76-19.01,21.68-28.24,32.76s-18.36,22.42-27.26,33.85-17.7,23.13-26.25,34.92c-8.47,11.67-16.74,23.48-24.81,35.43s-16.02,24.15-23.72,36.42c-7.66,12.21-15.12,24.55-22.37,37.02-7.28,12.52-14.35,25.17-21.21,37.94s-13.49,25.65-19.9,38.64c-6.93,14.03-13.81,28.15-19.3,42.83-2.73,7.29-5.07,14.73-6.84,22.31-.73,3.13,4.09,4.47,4.82,1.33h0Z"/>
    <path class="st3" d="M877.89-43.56c26.12,5.55,51.59,13.99,76.12,24.51,24.71,10.58,48.52,23.16,71.63,36.87s44.7,27.77,65.99,43.19c20.94,15.15,41.06,31.48,59.71,49.38,18.83,18.07,36.08,37.76,51.04,59.16s29.06,46.41,41.33,70.86,24.04,50.12,35.35,75.49c11.5,25.8,22.36,51.92,31.37,78.71,9.02,26.85,16.15,54.39,20.07,82.47,3.89,27.9,4.59,56.48.7,84.41-.96,6.86-2.19,13.68-3.69,20.44-.7,3.13,4.12,4.47,4.82,1.33,6.23-27.98,7.66-56.87,5.43-85.41-2.24-28.59-8.01-56.81-16.1-84.29-8.1-27.51-18.46-54.3-29.73-80.65-11.08-25.9-22.86-51.54-35.04-76.95-11.9-24.83-24.58-49.35-39.34-72.62-14.33-22.6-30.77-43.74-49.28-63.08-18.06-18.86-37.82-36.02-58.51-51.93-20.78-15.98-42.53-30.69-64.76-44.57-22.93-14.32-46.5-27.67-70.94-39.23-24.39-11.53-49.66-21.32-75.74-28.32-6.32-1.7-12.69-3.23-19.1-4.59-3.14-.67-4.48,4.15-1.33,4.82h0Z"/>
    <path class="st4" d="M865.31,568.92c8.49-24.17,17.77-48.06,27.85-71.61s20.99-46.92,32.61-69.84,23.98-45.47,37.05-67.59c13.07-22.13,26.85-43.84,41.3-65.1s29.48-41.93,45.2-62.16c15.78-20.29,32.2-40.09,49.22-59.34,17.03-19.25,34.67-37.97,52.88-56.1,18.21-18.13,37.01-35.68,56.34-52.61,19.27-16.87,39.08-33.14,59.41-48.72,20.4-15.63,41.31-30.6,62.69-44.86,5.15-3.44,10.34-6.83,15.55-10.19,2.7-1.74.19-6.07-2.52-4.32-21.72,13.99-42.97,28.7-63.72,44.09-20.75,15.4-41.01,31.48-60.72,48.19-19.65,16.66-38.76,33.96-57.3,51.86-18.59,17.94-36.6,36.48-54,55.57-17.32,19-34.03,38.54-50.11,58.6-16.21,20.22-31.79,40.95-46.69,62.16s-28.88,42.53-42.29,64.46c-13.48,22.04-26.25,44.51-38.28,67.36-11.97,22.74-23.21,45.86-33.68,69.33s-20.35,47.68-29.33,71.99c-2.15,5.81-4.25,11.64-6.3,17.49-.45,1.27.51,2.74,1.75,3.08,1.38.38,2.63-.47,3.08-1.75h0Z"/>
    <path class="st4" d="M711.18-56.7c17.62,3.16,34.87,8.13,51.59,14.49,16.72,6.35,32.89,14.08,48.58,22.65s31.2,18.19,46.22,28.21c14.53,9.69,28.78,19.8,42.81,30.19,13.71,10.15,27.2,20.59,40.46,31.31,13.29,10.75,26.36,21.76,39.21,33.04,12.84,11.26,25.46,22.77,37.86,34.51s24.6,23.72,36.58,35.89c12,12.19,23.78,24.59,35.36,37.17s23.01,25.39,34.22,38.34c11.23,12.98,22.27,26.12,33.14,39.42,10.88,13.32,21.59,26.79,32.12,40.39,10.51,13.57,20.85,27.28,31.04,41.09s20.26,27.8,30.17,41.86,19.79,28.37,29.48,42.7c9.7,14.34,19.28,28.76,28.74,43.26,9.46,14.5,18.81,29.08,28.06,43.73s18.39,29.34,27.46,44.09c9.05,14.73,18.02,29.52,26.91,44.35s17.69,29.64,26.44,44.51c4.23,7.18,8.44,14.36,12.64,21.56,1.62,2.78,5.95.26,4.32-2.52-8.73-14.94-17.5-29.85-26.34-44.73-8.83-14.85-17.71-29.67-26.68-44.44-9.02-14.85-18.11-29.66-27.3-44.4-9.16-14.7-18.41-29.34-27.77-43.91s-18.9-29.19-28.53-43.67c-9.58-14.41-19.29-28.74-29.12-42.98-9.87-14.28-19.87-28.46-30.03-42.53s-20.34-27.87-30.75-41.63c-10.48-13.85-21.11-27.57-31.93-41.15-10.75-13.5-21.67-26.85-32.78-40.05s-22.27-26.08-33.7-38.86c-11.41-12.76-23.01-25.35-34.81-37.74s-23.89-24.65-36.15-36.65-24.72-23.78-37.41-35.31-25.5-22.74-38.58-33.73c-13.16-11.05-26.54-21.83-40.14-32.34-13.64-10.53-27.5-20.77-41.58-30.7-14.71-10.37-29.66-20.42-45.03-29.78-15.38-9.37-31.19-18.08-47.54-25.66-16.35-7.59-33.24-14.1-50.61-18.96-8.34-2.33-16.79-4.28-25.32-5.81-1.33-.24-2.69.36-3.08,1.75-.33,1.21.41,2.84,1.75,3.08h0Z"/>
    <path class="st4" d="M237.37-116c-.08,17.77.14,35.55.72,53.32.59,17.84,1.56,35.67,2.98,53.47s3.34,35.68,5.79,53.43,5.4,35.1,9.02,52.48,7.84,34.41,12.82,51.33c4.95,16.83,10.64,33.45,17.14,49.75,6.52,16.35,13.83,32.39,22.02,47.96s17.37,30.88,27.39,45.49,21.39,29.31,33.2,43.06,24.26,26.86,37.23,39.46c13.06,12.69,26.62,24.85,40.54,36.58,14.07,11.85,28.49,23.28,43.18,34.33s30.21,22.05,45.87,32.27,31.66,19.82,48.1,28.67,33.4,16.93,50.71,24.05c17.68,7.27,35.78,13.49,54.11,18.9s36.97,10.02,55.67,14.12,37.66,7.71,56.57,11.11,37.97,6.61,56.95,9.92c18.97,3.31,37.93,6.73,56.81,10.56,9.12,1.85,18.22,3.8,27.29,5.88,3.13.72,4.47-4.1,1.33-4.82-18.68-4.28-37.48-8.01-56.32-11.49-18.88-3.48-37.81-6.7-56.72-9.97-18.97-3.28-37.93-6.61-56.83-10.3s-37.28-7.64-55.73-12.3-36.95-10.02-55.02-16.31c-17.63-6.13-34.9-13.21-51.75-21.24-16.84-8.02-33.26-16.92-49.27-26.49-15.98-9.55-31.55-19.78-46.76-30.51-15.09-10.64-29.84-21.77-44.29-33.27s-27.97-22.87-41.38-34.97c-13.4-12.09-26.37-24.65-38.76-37.77-12.31-13.03-24.05-26.61-35-40.81s-21.03-28.92-30.21-44.26-17.1-30.52-24.38-46.43c-7.23-15.8-13.61-31.99-19.23-48.44s-10.56-33.42-14.78-50.42-7.8-34.39-10.76-51.77-5.34-34.9-7.21-52.45c-1.88-17.68-3.26-35.42-4.23-53.18s-1.52-35.62-1.74-53.44c-.11-8.51-.13-17.03-.1-25.55.01-3.22-4.99-3.22-5,0h0Z"/>
    <path class="st3" d="M685.05-167.63c-16.19-.08-31.98,5.07-45.44,13.98-13.75,9.1-25.05,21.65-33.5,35.75-8.58,14.31-14.36,30.38-16.6,46.92-2.73,20.21-.68,40.95,4.05,60.7,4.91,20.51,12.8,40.21,21.88,59.2s19.37,37.41,29.94,55.61,21.39,35.77,32.7,53.26c11.31,17.49,23.02,34.72,35.05,51.72s24.41,33.81,37.04,50.4c12.69,16.66,25.63,33.13,38.78,49.43,13.13,16.28,26.46,32.39,39.94,48.38,13.49,16.01,27.13,31.89,40.86,47.69s27.56,31.52,41.42,47.21c13.85,15.67,27.75,31.3,41.63,46.94,14.21,16.01,28.38,32.06,42.77,47.92,14.44,15.92,29.09,31.65,44.23,46.91,15.17,15.29,30.82,30.11,47.16,44.13,15.36,13.18,31.34,25.65,48.03,37.11,16.38,11.25,33.44,21.53,51.17,30.49,17.71,8.95,36.11,16.61,55.05,22.56,9.1,2.86,18.33,5.32,27.65,7.35,3.14.68,4.48-4.14,1.33-4.82-19.19-4.18-37.96-10.19-56.1-17.7s-35.59-16.53-52.39-26.62c-16.87-10.13-33.09-21.36-48.63-33.43-16.45-12.78-32.18-26.49-47.36-40.76s-30.47-29.83-45.07-45.36c-14.62-15.56-28.89-31.44-43.08-47.39s-27.83-31.34-41.75-47.02-27.57-31.09-41.27-46.7c-13.72-15.62-27.37-31.29-40.9-47.07-13.53-15.77-26.94-31.64-40.18-47.65s-26.28-32.12-39.1-48.43c-12.72-16.17-25.21-32.53-37.42-49.09-12.28-16.65-24.26-33.52-35.9-50.62-11.63-17.1-22.92-34.43-33.78-52.02-10.88-17.62-21.34-35.49-31.31-53.64s-19.58-36.94-27.15-56.41c-7.44-19.15-13.11-39.2-14.88-59.72-1.57-18.13-.19-36.32,5.68-53.61,5.19-15.3,13.48-29.69,24.39-41.62,10.53-11.51,23.67-20.86,38.64-25.56,7.27-2.28,14.8-3.43,22.41-3.39,3.22.02,3.22-4.98,0-5h0Z"/>
    <path class="st3" d="M491.68-58.39c1.5,16.73,4.05,33.36,7.54,49.78s7.88,32.44,13.04,48.31,11.19,31.74,17.74,47.24c6.56,15.52,13.72,30.78,21.34,45.81,7.67,15.14,15.79,30.04,24.24,44.75s16.96,28.79,25.81,42.95,17.1,26.88,26.09,40.02,18.44,26.17,28.28,38.81,19.94,24.68,30.7,36.35c10.69,11.6,21.93,22.71,33.79,33.13s24.43,20.25,37.56,29.15c14.17,9.6,29.06,18.11,44.34,25.81s31.34,14.78,47.36,21.34c16.07,6.58,32.31,12.72,48.57,18.84,17.52,6.59,35.04,13.17,52.55,19.76,17.77,6.68,35.54,13.36,53.31,20.04s35.38,13.3,53.07,19.95c17.69,6.65,35.38,13.3,53.07,19.95,17.69,6.65,35.38,13.3,53.07,19.95,17.69,6.65,35.38,13.3,53.07,19.95,8.57,3.22,17.15,6.45,25.72,9.67,1.26.48,2.74-.53,3.08-1.75.39-1.4-.48-2.6-1.75-3.08-17.61-6.62-35.23-13.24-52.84-19.86s-35.23-13.24-52.84-19.86c-17.61-6.62-35.23-13.24-52.84-19.86-17.69-6.65-35.38-13.3-53.07-19.95-17.61-6.62-35.23-13.24-52.84-19.86-17.61-6.62-35.23-13.24-52.84-19.86-16.78-6.31-33.58-12.55-50.31-18.99-16-6.16-31.92-12.54-47.57-19.55-15.65-7.01-31.04-14.63-45.89-23.23-14.09-8.15-27.65-17.21-40.49-27.2s-24.16-20.06-35.36-31.06c-11.28-11.09-21.98-22.77-32.17-34.86-10.16-12.05-19.81-24.53-29.07-37.28-9.32-12.85-18.26-25.98-26.91-39.28-8.81-13.55-17.35-27.27-25.68-41.12s-17.06-28.96-25.08-43.73-15.65-29.75-22.76-44.98-13.59-30.44-19.45-46.04-11.03-31.41-15.38-47.48-7.83-32.3-10.33-48.72c-1.21-7.95-2.17-15.93-2.88-23.94-.12-1.34-1.06-2.5-2.5-2.5-1.26,0-2.62,1.15-2.5,2.5h0Z"/>
    <path class="st3" d="M513.04,598.92c17.63,1.01,35.31.43,52.87-1.4,17.67-1.84,35.2-4.89,52.53-8.77s34.32-8.56,51.24-13.7c15-4.56,29.9-9.43,44.67-14.69s28.47-10.58,42.44-16.52,27.42-12.19,40.75-19.09,26.29-14.32,38.87-22.43c12.55-8.09,24.67-16.84,36.23-26.3,11.47-9.39,22.35-19.49,32.46-30.33,10.72-11.49,20.52-23.82,29.39-36.79,9.37-13.69,17.74-28.05,25.39-42.76,7.68-14.76,14.65-29.88,21.26-45.15,6.83-15.79,13.35-31.71,19.49-47.78,6.2-16.22,12-32.59,17.29-49.12,5.29-16.51,10.06-33.19,14.22-50.02,4.15-16.82,7.67-33.79,10.45-50.89,2.75-16.94,4.79-34,5.97-51.13,1.18-17.07,1.52-34.21.92-51.31s-2.14-34.24-4.69-51.19-6.08-33.55-10.75-49.94c-2.25-7.91-4.77-15.74-7.54-23.48-.45-1.27-1.7-2.12-3.08-1.75-1.23.34-2.2,1.8-1.75,3.08,5.69,15.91,10.28,32.2,13.81,48.73s6,33.29,7.49,50.13,2.02,33.84,1.69,50.78-1.55,34.05-3.55,50.96-4.83,33.79-8.3,50.49c-3.49,16.81-7.66,33.48-12.38,49.99-4.75,16.61-10.05,33.06-15.8,49.34-5.73,16.23-11.9,32.29-18.41,48.22-6.29,15.39-12.85,30.69-19.92,45.75-7.03,14.97-14.6,29.7-23.03,43.94-8.31,14.02-17.45,27.58-27.71,40.26-9.27,11.45-19.39,22.21-30.17,32.24-10.75,9.99-22.15,19.26-34.06,27.84s-24.46,16.58-37.27,23.93-26.17,14.21-39.67,20.51c-13.55,6.32-27.34,12.13-41.29,17.52-13.93,5.38-28.03,10.36-42.22,15.02-16.07,5.28-32.27,10.22-48.61,14.61-17.06,4.58-34.3,8.52-51.72,11.44-17.19,2.88-34.56,4.73-51.98,5.17-8.51.22-17.03.09-25.53-.4-3.21-.18-3.2,4.82,0,5h0Z"/>
    <path class="st3" d="M164.35,528.77c24.3,5.86,50.4,4.14,73.64-5.12s41.93-24.87,59.64-41.49c17.43-16.36,34.09-33.55,49.8-51.56s30.6-37.03,44.18-56.82c13.51-19.69,25.79-40.25,36.5-61.6,11.37-22.68,20.87-46.25,28.83-70.33s14.76-49.92,20.45-75.31c5.7-25.45,10.5-51.1,15.07-76.78,4.69-26.35,9.18-52.78,11.52-79.46s2.43-53.15-1.66-79.42c-1-6.43-2.27-12.81-3.79-19.13-.76-3.13-5.58-1.8-4.82,1.33,6.18,25.55,7.7,51.94,6.55,78.14-1.16,26.49-4.97,52.77-9.41,78.88s-8.98,51.03-14.24,76.39c-5.23,25.2-11.18,50.26-18.5,74.94s-15.93,48.71-26.54,72.02c-9.82,21.54-21.25,42.34-33.98,62.29s-26.63,38.9-41.61,57.09-31.1,35.72-47.93,52.37-34.46,33.62-55.17,45.66-45.49,17.97-69.91,15.92c-5.82-.49-11.59-1.45-17.27-2.82-3.13-.75-4.46,4.07-1.33,4.82h0Z"/>
    <path class="st4" d="M-85.23,286.81c25.38,1.42,50.8,2.79,76.23,2.04,25.06-.75,50.23-3.59,74.38-10.56,21.99-6.35,42.81-16.27,62.04-28.64s36.58-26.73,52.95-42.33c16.5-15.72,31.85-32.59,46.66-49.9,15.51-18.12,30.39-36.79,44.61-55.94s27.54-38.44,40.3-58.35,24.91-40.37,36.31-61.16c11.4-20.8,22.08-41.98,32.02-63.51,9.94-21.53,19.14-43.4,27.58-65.56,2.06-5.42,4.08-10.86,6.05-16.32.46-1.27-.52-2.74-1.75-3.08-1.39-.38-2.61.47-3.08,1.75-8.01,22.17-16.78,44.06-26.32,65.62-9.5,21.49-19.75,42.65-30.69,63.44-10.98,20.85-22.68,41.33-35.06,61.39s-25.45,39.69-39.17,58.85-28.03,37.74-43,55.85c-14.62,17.69-29.75,35-45.84,51.38-15.65,15.93-32.27,31.01-50.36,44.14-17.98,13.05-37.43,24.25-58.25,32.11-23.01,8.69-47.35,13.12-71.82,14.92-25.12,1.85-50.35,1.11-75.48-.16-6.1-.31-12.21-.65-18.31-.99-3.21-.18-3.2,4.82,0,5h0Z"/>
    <path class="st3" d="M1065.68-75.13c22.15,7.22,43.01,17.9,62.27,30.97,19.41,13.17,37.12,28.72,53.48,45.5s31.83,35.34,46.15,54.3c15.06,19.94,29.19,40.58,42.91,61.46,14.68,22.35,28.76,45.09,42.18,68.22,13.41,23.12,26.15,46.63,38.13,70.53,11.94,23.81,23.15,48,33.5,72.55,10.41,24.67,19.96,49.7,28.58,75.05,9,26.46,17.24,53.28,23.11,80.63s9.28,55.67,7.84,83.82c-.34,6.73-.95,13.45-1.88,20.13-.19,1.34.32,2.68,1.75,3.08,1.17.32,2.89-.4,3.08-1.75,3.95-28.44,2.59-57.2-1.98-85.48-4.54-28.11-12.16-55.63-20.82-82.73-8.17-25.58-17.31-50.85-27.31-75.77-10.09-25.12-21.05-49.89-32.8-74.27s-24.12-48.04-37.27-71.47c-13.16-23.45-27.01-46.51-41.49-69.16-13.92-21.8-28.34-43.32-43.52-64.26-14.17-19.54-29.12-38.57-45.36-56.44-16-17.6-33.29-34.05-52.21-48.49s-39.06-26.37-60.86-35.3c-5.3-2.17-10.69-4.14-16.13-5.92-3.07-1-4.38,3.83-1.33,4.82h0Z"/>
    <path class="st3" d="M963.03,566.87c22.72-11.24,46.44-20.26,70.1-29.28,23.59-8.99,47.24-18.01,69.88-29.24,22.33-11.08,43.57-24.49,61.96-41.42s33.36-36.33,45.87-57.49c12.55-21.23,22.41-44.04,30-67.5,8.64-26.71,14.27-54.31,18.19-82.08,4.09-29.01,6.34-58.24,8.11-87.47,1.78-29.43,3.72-58.94,3.24-88.44-.45-27.78-3.24-55.72-10.93-82.5-6.95-24.19-17.8-47.4-33.51-67.17-3.73-4.7-7.74-9.17-12.01-13.4-2.29-2.27-5.83,1.27-3.54,3.54,17.49,17.33,30.25,38.91,38.82,61.9,9.28,24.89,13.76,51.22,15.4,77.67,1.82,29.42.33,58.92-1.32,88.31-1.61,28.87-3.36,57.75-6.6,86.49s-8.01,57.04-15.61,84.8c-6.47,23.63-15.09,46.69-26.35,68.47-11.12,21.51-24.78,41.75-41.34,59.45-16.83,17.99-36.53,32.69-58,44.68-21.74,12.15-44.81,21.64-68,30.61s-47.29,17.72-70.35,28c-5.56,2.48-11.08,5.06-16.53,7.75-2.88,1.43-.35,5.74,2.52,4.32h0Z"/>
    <path class="st4" d="M1381.92-21.28c-17.08-7.21-34.59-13.37-52.45-18.34s-36-9.1-54.36-11.16c-9.04-1.01-18.2-1.36-27.27-.42-8.9.92-17.49,3.08-25.72,6.57-15.65,6.64-29.15,17.3-42.07,28.16s-26.27,22.59-38.81,34.53c-12.47,11.89-24.47,24.3-35.63,37.44-11.18,13.15-21.54,27.02-30.66,41.68-8.9,14.3-16.66,29.31-23.27,44.8-6.62,15.51-12.15,31.47-16.54,47.76s-7.69,33.1-9.93,49.94c-2.23,16.77-3.38,33.68-3.48,50.6-.11,17.67.94,35.34,2.99,52.89,2.08,17.77,5.17,35.41,9.2,52.85,4.04,17.47,9.01,34.72,14.8,51.69,5.82,17.05,12.46,33.81,19.8,50.26s14.7,31.77,23.67,46.75,19.07,28.42,31.82,39.81c12.69,11.34,27.25,20.38,42.38,28.08,15.96,8.13,32.55,15.12,49.34,21.35,17.15,6.37,34.64,11.84,52.37,16.36,8.64,2.21,17.33,4.18,26.07,5.95,1.32.27,2.7-.38,3.08-1.75.34-1.23-.42-2.81-1.75-3.08-17.78-3.58-35.38-8.09-52.69-13.51-17.25-5.4-34.24-11.69-50.83-18.88-15.58-6.76-30.97-14.18-45.22-23.48s-26.49-20.27-36.79-33.5-18.57-28.15-26.06-43.19c-7.84-15.75-15.01-31.83-21.44-48.21-6.47-16.49-12.2-33.28-17.07-50.31-4.88-17.07-8.91-34.39-11.97-51.88s-5.07-34.83-6.05-52.39c-.94-16.93-.88-33.92.27-50.84s3.29-33.1,6.52-49.41c3.25-16.35,7.56-32.49,12.97-48.26,5.38-15.66,11.86-30.93,19.47-45.64s16.57-29.16,26.49-42.68c10.1-13.76,21.26-26.73,33.03-39.09s24.26-24.15,37.06-35.52c6.39-5.68,12.86-11.26,19.39-16.77s12.76-10.61,19.55-15.39,13.91-9.08,21.52-12.4,16.17-5.52,24.64-6.35c18.02-1.77,36.14,1.34,53.72,5.06s35.6,8.73,52.89,14.79c8.25,2.89,16.43,6.03,24.48,9.43,1.24.52,2.68.37,3.42-.9.61-1.05.35-2.89-.9-3.42h0Z"/>
    <path class="st3" d="M894.37,548.26c25.59-7.23,46.53-24.75,66.67-41.32,22.19-18.24,43.79-37.2,64.72-56.86,9.61-9.03,19.08-18.28,27.43-28.51s15.51-21.63,20.87-33.89c10.64-24.33,15.5-50.7,20.22-76.68,4.79-26.34,8.77-52.84,11.82-79.44,3.06-26.57,5.18-53.25,6.23-79.97,1.05-26.64,1.04-53.33-.2-79.96-1.23-26.57-3.7-53.08-7.51-79.41s-8.93-52.09-15.58-77.65c-6.67-25.65-14.86-50.91-24.65-75.54-2.41-6.06-4.91-12.08-7.51-18.06-.54-1.24-2.35-1.52-3.42-.9-1.28.75-1.44,2.18-.9,3.42,10.44,24.09,19.27,48.87,26.6,74.07,7.33,25.21,13.15,50.85,17.59,76.73s7.47,52.01,9.28,78.22c1.81,26.27,2.39,52.62,1.89,78.95-.5,26.58-2.1,53.14-4.65,79.6-2.54,26.38-6.04,52.67-10.37,78.82-2.16,13.05-4.51,26.06-7.09,39.04-2.56,12.89-5.43,25.75-9.41,38.29-3.9,12.31-8.91,24.29-15.67,35.32s-15.36,21.06-24.47,30.37c-9.57,9.78-19.69,19.03-29.82,28.22s-21.29,19.02-32.16,28.26-21.28,17.93-32.23,26.5c-10.05,7.87-20.55,15.31-32.02,20.98-5.47,2.7-11.14,4.93-17.01,6.59-3.09.87-1.78,5.7,1.33,4.82h0Z"/>
    <path class="st3" d="M849.82,553.18c-15.76-13.86-31.59-27.83-45-44.04-6.57-7.95-12.49-16.46-17.35-25.57-5.16-9.66-9.04-19.95-11.9-30.51-5.86-21.6-7.58-44.15-7.44-66.46.15-23.42,2.63-46.79,6.7-69.84,4.09-23.17,9.75-46.04,16.25-68.64,6.48-22.55,13.73-44.89,21.42-67.05,7.66-22.07,15.84-43.96,24.53-65.65s17.8-42.91,27.45-64.03c9.37-20.51,19.01-40.98,29.66-60.86,9.73-18.18,20.72-35.92,34.91-50.99,3.47-3.68,7.12-7.19,10.94-10.5,1.02-.88.91-2.63,0-3.54-1.01-1.01-2.51-.89-3.54,0-15.95,13.8-28.51,31.04-39.15,49.14-11.13,18.93-20.59,38.86-29.94,58.71-10.08,21.4-19.64,43.05-28.69,64.91-9,21.73-17.49,43.67-25.45,65.81-7.98,22.17-15.46,44.53-22.32,67.08-6.93,22.74-13.15,45.72-17.95,69.01-4.79,23.22-8.17,46.79-9.36,70.48-1.15,22.97-.43,46.27,3.79,68.92s11.72,42.2,24.18,60.31c12.08,17.55,27.43,32.48,43.21,46.66,3.82,3.43,7.67,6.82,11.52,10.21,1.01.89,2.54,1,3.54,0,.91-.91,1.02-2.64,0-3.54h0Z"/>
    <path class="st3" d="M1346.44-120.75c15.2,4.57,29.72,11.06,43.47,18.96,13.76,7.91,26.73,17.14,38.98,27.23s24.01,21.19,35.16,32.68c11.16,11.5,21.86,23.45,32.09,35.79s19.73,24.75,28.92,37.63c9.27,13,18.09,26.33,26.48,39.91s16.33,27.38,23.89,41.41,14.84,28.5,21.71,43.02,13.3,29.06,19.45,43.81,12.06,29.86,17.65,44.96c5.62,15.18,10.96,30.47,16.06,45.84,5.07,15.29,9.89,30.66,14.52,46.08,4.68,15.62,9.16,31.3,13.46,47.03,4.67,17.07,9.1,34.21,13.2,51.43,4.13,17.37,7.93,34.83,11.26,52.37s6.17,34.81,8.45,52.34,3.97,35.05,4.96,52.66c.99,17.54,1.27,35.13.71,52.69-.56,17.38-1.93,34.76-4.3,51.99-2.38,17.24-5.73,34.35-10.13,51.18-2.15,8.22-4.55,16.37-7.21,24.44-1.01,3.06,3.82,4.38,4.82,1.33,5.5-16.75,9.92-33.84,13.28-51.14s5.67-34.6,7.09-52.07,1.94-35.13,1.67-52.72-1.33-35.42-3.02-53.06c-1.71-17.76-4.06-35.46-6.92-53.07-2.87-17.7-6.26-35.31-10.05-52.83-3.77-17.43-7.93-34.77-12.38-52.04-4.28-16.61-8.82-33.15-13.54-49.63-4.47-15.6-9.13-31.14-14.01-46.61-4.87-15.44-9.97-30.81-15.34-46.08s-11.04-30.58-17-45.7c-5.97-15.16-12.26-30.2-18.88-45.08-6.54-14.7-13.43-29.25-20.7-43.61-7.27-14.37-14.93-28.54-23-42.47-8.01-13.83-16.44-27.42-25.3-40.72-8.89-13.34-18.23-26.38-28.03-39.07-9.82-12.72-20.09-25.08-30.83-37.02-10.79-11.98-22.02-23.59-33.85-34.54-11.9-11.01-24.44-21.36-37.75-30.62-13.08-9.09-26.95-17.1-41.58-23.42-7.2-3.11-14.55-5.84-22.07-8.09-3.09-.93-4.41,3.9-1.33,4.82h0Z"/>
    <path class="st4" d="M1569.3-120.29c-11.38,9.45-22.64,19.05-33.75,28.82s-22.2,19.83-33.04,30.02-21.4,20.47-31.8,31c-10.39,10.52-20.57,21.25-30.51,32.2-9.93,10.93-19.61,22.09-29.02,33.47-9.49,11.48-18.69,23.19-27.58,35.14-8.8,11.84-17.29,23.91-25.42,36.22-8.21,12.44-16.06,25.12-23.49,38.04-7.53,13.08-14.65,26.4-21.34,39.93-6.73,13.59-13.01,27.39-18.89,41.37s-11.32,28.15-16.32,42.47c-4.97,14.25-9.51,28.66-13.6,43.19-4.09,14.53-7.72,29.19-10.9,43.94-3.18,14.76-5.9,29.61-8.15,44.53-2.28,15.07-4.09,30.22-5.42,45.4-1.32,15.09-2.17,30.23-2.35,45.37-.19,15.17.28,30.36,1.6,45.47,1.32,15.09,3.47,30.13,6.67,44.94s7.42,29.26,12.88,43.31c2.72,7.01,5.71,13.92,9.04,20.65,3.05,6.17,6.48,12.17,10.7,17.63,4.09,5.29,8.92,9.95,14.65,13.43,2.76,1.68,5.27-2.65,2.52-4.32-11.58-7.04-18.7-19.16-24.43-31.06-6.45-13.41-11.63-27.4-15.72-41.7-4.11-14.39-7.1-29.08-9.18-43.9s-3.18-29.83-3.59-44.8-.1-30.07.76-45.07,2.24-29.98,4.08-44.9c1.82-14.83,4.13-29.61,6.88-44.29s5.99-29.44,9.66-44.01c3.67-14.57,7.79-29.02,12.35-43.33,4.56-14.31,9.56-28.49,14.98-42.49,5.4-13.94,11.24-27.71,17.5-41.29s13-27.08,20.12-40.31c7.07-13.12,14.55-26.03,22.42-38.69,7.76-12.47,15.89-24.71,24.35-36.71,8.42-11.94,17.17-23.65,26.22-35.11s18.49-22.83,28.14-33.9,19.57-21.96,29.71-32.61,20.52-21.13,31.08-31.39,21.32-20.35,32.24-30.24,21.99-19.61,33.2-29.17c5.41-4.61,10.84-9.18,16.31-13.72,1.04-.86.89-2.64,0-3.54-1.03-1.03-2.49-.87-3.54,0h0Z"/>
    <path class="st1" d="M1313.45,635.63c19.44-19.29,35.72-41.65,48.9-65.62,13.38-24.34,23.66-50.34,31.34-77.02,8.67-30.11,14.08-61.06,17.61-92.16,3.47-30.52,5.21-61.25,6.08-91.95.85-30.23.68-60.48-.51-90.7-1.19-30.22-3.39-60.39-6.6-90.46-3.2-29.99-7.38-59.87-12.55-89.58-5.18-29.79-11.35-59.42-18.51-88.8-7.15-29.38-15.29-58.52-24.39-87.36-9.1-28.84-19.18-57.37-30.21-85.52-2.65-6.75-5.35-13.48-8.1-20.19-.51-1.25-1.66-2.13-3.08-1.75-1.18.32-2.26,1.82-1.75,3.08,11.43,27.83,21.92,56.05,31.45,84.58,9.53,28.54,18.1,57.39,25.71,86.5,7.61,29.11,14.24,58.47,19.9,88.02s10.32,59.15,13.99,88.94c3.68,29.86,6.37,59.84,8.05,89.88,1.69,30.04,2.37,60.13,2.04,90.22-.33,30.44-1.6,60.91-4.18,91.25-2.62,30.93-6.81,61.77-13.89,92.01-6.48,27.69-15.39,54.86-27.58,80.58s-26.09,47.69-43.85,68.18c-4.29,4.95-8.76,9.73-13.41,14.34-2.29,2.27,1.25,5.8,3.54,3.54h0Z"/>
    <path class="st3" d="M1294.32,561.25c-.15-18.24,2.27-36.39,6.88-54.02,4.64-17.71,11.4-34.82,19.81-51.07,8.43-16.3,18.47-31.8,29.78-46.25,11.67-14.91,24.68-28.75,38.53-41.66,14.06-13.11,28.99-25.26,44.47-36.66,15.59-11.48,31.72-22.23,48.11-32.54s33.33-20.43,50.31-30.1,34.76-19.21,52.64-27.83,36-16.42,54.62-23.1c18.61-6.68,37.63-12.21,57-16.22,4.69-.97,9.4-1.84,14.12-2.63,1.33-.22,2.08-1.87,1.75-3.08-.39-1.41-1.74-1.97-3.08-1.75-19.67,3.28-39.03,8.18-57.98,14.35s-37.54,13.62-55.7,21.89-36.13,17.5-53.69,27.2c-17.35,9.58-34.44,19.65-51.33,30.01-16.63,10.2-33.05,20.78-48.98,32.05-15.88,11.22-31.3,23.12-45.91,35.95-14.52,12.74-28.26,26.42-40.74,41.18s-22.89,29.49-32.19,45.65-16.97,33.09-22.67,50.76c-5.68,17.61-9.29,35.9-10.38,54.38-.27,4.49-.38,9-.34,13.5.03,3.22,5.03,3.22,5,0h0Z"/>
    <path class="st3" d="M1547.39,621.97c-4.95-23.98-9.91-48.06-11.76-72.52s-.39-46.74,5.86-69.37c5.76-20.83,15-40.55,26.31-58.92,11.79-19.15,25.85-36.77,40.98-53.38,15.63-17.16,32.36-33.27,49.2-49.23,2.12-2.01,4.24-4.02,6.36-6.02,2.34-2.22-1.2-5.75-3.54-3.54-17.08,16.16-34.17,32.34-50.25,49.5-15.7,16.76-30.47,34.5-43.02,53.76-11.98,18.38-21.99,38.18-28.66,59.11-7.14,22.37-9.77,45.71-8.78,69.14,1.06,24.86,5.64,49.41,10.61,73.73.62,3.03,1.24,6.05,1.87,9.07.27,1.32,1.83,2.09,3.08,1.75,1.37-.38,2.02-1.75,1.75-3.08h0Z"/>
    <path class="st3" d="M1241.65-184.72c1.42,20.03,5.26,39.77,9.55,59.35,3.8,17.34,7.48,34.81,12.78,51.77,5.07,16.22,11.82,32.15,21.99,45.87s23.21,24.45,37.53,33.37,29.67,15.96,45.02,22.87c17.67,7.95,35.42,15.74,53.37,23.04,17.95,7.29,36.12,14.07,54.58,19.92s37.14,10.77,56.14,14.34c19.2,3.61,38.69,5.89,58.22,6.38s38.8-.8,57.89-4.19c4.66-.83,9.3-1.79,13.91-2.88,3.13-.74,1.81-5.56-1.33-4.82-18.6,4.39-37.64,6.59-56.73,6.94-19.15.36-38.34-1.08-57.27-3.98-18.91-2.89-37.58-7.2-55.95-12.51s-36.45-11.63-54.29-18.54-35.39-14.41-52.85-22.15c-15.78-6.99-31.68-13.89-46.85-22.15-14.39-7.84-28.17-17.08-39.44-29.08s-19.47-26.94-25.27-42.48c-5.93-15.89-9.78-32.45-13.49-48.97-4.31-19.14-8.69-38.32-11.11-57.8-.59-4.76-1.07-9.53-1.41-14.31-.1-1.35-1.08-2.5-2.5-2.5-1.28,0-2.6,1.15-2.5,2.5h0Z"/>
    <path class="st1" d="M1468.24-190.7c-5.97,22.77-9.06,46.25-9.72,69.76-.66,23.56,1.11,47.13,4.51,70.44s8.59,46.85,14.85,69.82c6.16,22.62,13.38,44.94,21.23,67.02s16.27,43.47,25.45,64.78,19.01,42.2,29.57,62.79c10.59,20.65,21.89,40.94,33.89,60.81,11.16,18.48,22.83,36.71,35.59,54.14,12.15,16.61,25.31,32.54,40.08,46.89,14.54,14.12,30.69,26.73,48.49,36.5,4.33,2.38,8.76,4.58,13.27,6.61,1.23.55,2.69.35,3.42-.9.63-1.07.34-2.86-.9-3.42-18.33-8.25-35.15-19.51-50.29-32.7-15.36-13.39-29.05-28.61-41.57-44.66-12.75-16.35-24.27-33.63-35.27-51.18-12.21-19.47-23.73-39.37-34.55-59.65-10.83-20.27-20.96-40.92-30.4-61.87-9.45-20.97-18.19-42.26-26.23-63.81-8.12-21.75-15.6-43.76-22.2-66.02s-12.45-45.52-16.68-68.73c-4.18-22.96-6.84-46.22-7.31-69.56s1.23-46.33,5.75-69.03c1.12-5.61,2.41-11.18,3.86-16.71.82-3.12-4-4.44-4.82-1.33h0Z"/>
    <path class="st0" d="M1203.19,538.99c3.22,0,3.22-5,0-5s-3.22,5,0,5h0Z"/>
    <path class="st3" d="M1103.92,611.29c18.58-17.21,36.98-34.61,55.2-52.19,18.22-17.59,36.26-35.36,54.12-53.31,17.8-17.9,35.42-35.97,52.86-54.23,16.18-16.94,32.39-33.9,47.64-51.69,14.79-17.26,28.7-35.4,40.21-55.03,11.88-20.27,20.72-42.05,26.4-64.85,5.83-23.43,8.64-47.54,9.91-71.61,1.35-25.48,1.13-51.04-.08-76.52s-3.54-51.67-6.42-77.4-6.37-51.59-9.96-77.32c-.87-6.21-1.74-12.42-2.61-18.63-.19-1.34-1.89-2.07-3.08-1.75-1.44.4-1.93,1.73-1.75,3.08,3.58,25.45,7.16,50.91,10.26,76.42,3.11,25.55,5.76,51.16,7.47,76.85,1.71,25.64,2.49,51.36,1.86,77.06-.59,24.07-2.33,48.19-6.8,71.87-4.37,23.11-11.41,45.66-22.07,66.66-10.16,20.01-23.03,38.52-37.12,55.94-14.34,17.72-29.9,34.4-45.56,50.95-17.29,18.28-34.77,36.38-52.43,54.3-17.66,17.92-35.5,35.67-53.53,53.23s-36.22,34.94-54.59,52.13c-4.48,4.19-8.96,8.36-13.46,12.53-2.37,2.19,1.18,5.72,3.54,3.54h0Z"/>
    <path class="st1" d="M241.05-131.2c11.7,20.42,24.47,40.22,38.24,59.31s28.6,37.6,44.29,55.24,32.18,34.37,49.53,50.28c17.41,15.96,35.63,31.02,54.57,45.13,18.87,14.07,38.46,27.16,58.67,39.21s42.88,23.96,65.21,34.18c24.28,11.11,49.17,20.87,74.47,29.39s50.96,15.79,76.9,22.01c26.01,6.24,52.28,11.41,78.68,15.7s53.14,7.74,79.85,10.46,54.3,4.81,81.52,6.22c27.5,1.43,55.04,2.18,82.58,2.26,27.54.08,55.08-.5,82.59-1.75,27.51-1.25,54.99-3.16,82.41-5.73,27.49-2.58,54.91-5.83,82.24-9.72,27.27-3.88,54.44-8.42,81.48-13.61,27.05-5.19,53.97-11.03,80.73-17.52,26.76-6.49,53.37-13.63,79.79-21.41s52.53-16.17,78.48-25.22c24.94-8.7,49.73-18.15,73.12-30.49,11.22-5.92,22.09-12.52,32.38-19.95,1.09-.79,1.63-2.18.9-3.42-.63-1.08-2.32-1.69-3.42-.9-21.31,15.38-45,27.1-69.31,36.91s-50.3,18.5-75.79,26.66c-26.23,8.4-52.66,16.15-79.27,23.26-26.45,7.07-53.08,13.5-79.84,19.28-26.77,5.79-53.67,10.93-80.68,15.43-27.1,4.51-54.31,8.37-81.6,11.57s-54.47,5.72-81.79,7.6-54.84,3.11-82.29,3.67-54.92.46-82.37-.3-54.73-2.19-82.03-4.29c-26.79-2.05-53.53-4.74-80.17-8.23-26.33-3.45-52.55-7.7-78.59-12.9-26.12-5.22-52.05-11.41-77.65-18.74-25.54-7.31-50.75-15.77-75.46-25.52s-47.61-20.24-70.47-32.32c-20.81-10.99-41.03-23.08-60.58-36.18-19.37-12.98-38.08-26.95-56.03-41.85-18.06-14.99-35.35-30.9-51.8-47.64-16.45-16.74-32.04-34.32-46.7-52.65-14.56-18.21-28.18-37.19-40.78-56.8-6.14-9.56-12.04-19.28-17.69-29.15-1.6-2.79-5.92-.28-4.32,2.52h0Z"/>
    <path class="st3" d="M-29.99,424.74c29.76-8.77,59.53-17.52,89.34-26.11s59.58-17.03,89.46-25.21,59.9-16.12,89.98-23.67c30.04-7.54,60.17-14.7,90.42-21.36,30.15-6.64,60.41-12.78,90.78-18.28,30.18-5.47,60.48-10.33,90.89-14.41,30.5-4.1,61.1-7.42,91.77-9.83,30.43-2.4,60.93-3.9,91.44-4.38,30.51-.48,61.05.08,91.52,1.78,30.54,1.71,61.02,4.56,91.33,8.69,30.42,4.15,60.65,9.55,90.72,15.75,30.09,6.2,60,13.19,89.83,20.51,30.03,7.36,59.97,15.06,89.94,22.62,29.81,7.52,59.66,14.92,89.64,21.74,29.74,6.76,59.61,12.93,89.44,19.27,29.81,6.33,59.59,12.84,89.15,20.28s58.77,15.77,87.49,25.78c24.5,8.53,48.57,18.34,71.9,29.72,23.46,11.44,46.18,24.45,67.64,39.32s41.01,31.1,58.98,49.49c8.69,8.9,16.93,18.24,24.64,28,.84,1.06,2.66.88,3.54,0,1.05-1.05.84-2.47,0-3.54-16.08-20.35-34.44-38.83-54.39-55.37-20.08-16.65-41.7-31.4-64.3-44.41s-46.24-24.35-70.4-34.29c-26.24-10.79-53.16-19.85-80.39-27.79-29.23-8.52-58.83-15.75-88.53-22.43-29.91-6.73-59.94-12.9-89.93-19.3-29.95-6.39-59.8-13.16-89.55-20.43-30.03-7.33-59.98-15.02-89.96-22.6-29.8-7.53-59.63-14.96-89.59-21.82-30.08-6.89-60.29-13.21-90.7-18.49-30.48-5.29-61.14-9.47-91.94-12.36-30.43-2.85-60.97-4.51-91.53-5.06-30.66-.56-61.34-.02-91.97,1.5-30.52,1.51-61,3.98-91.38,7.27-30.72,3.33-61.34,7.49-91.86,12.35-30.42,4.84-60.74,10.38-90.93,16.49-30.47,6.16-60.83,12.88-91.08,20.05-30.16,7.15-60.22,14.74-90.2,22.64-30.14,7.95-60.19,16.22-90.19,24.69-29.93,8.45-59.79,17.1-89.64,25.84-14.25,4.17-28.49,8.36-42.73,12.56-3.08.91-1.77,5.73,1.33,4.82h0Z"/>
    <path class="st3" d="M40.18,585.32c12.61-13.76,27.22-25.49,42.96-35.49,15.99-10.16,33.03-18.59,50.46-25.99,18.14-7.69,36.75-14.27,55.44-20.48,20.48-6.8,41.16-12.99,61.99-18.64,20.91-5.67,41.96-10.81,63.11-15.48,21.1-4.66,42.3-8.86,63.57-12.68s42.64-7.27,64.04-10.42c21.34-3.14,42.72-5.98,64.12-8.6,21.57-2.64,43.17-5.11,64.8-7.27,21.74-2.17,43.51-4.02,65.31-5.33,21.76-1.31,43.57-2.09,65.37-2.12s43.61.68,65.34,2.35c21.55,1.66,43.03,4.28,64.32,8.06,20.37,3.62,40.53,8.33,60.4,14.09,19.15,5.55,38.03,12.04,56.59,19.3,18.45,7.22,36.6,15.21,54.45,23.81,18,8.66,35.7,17.93,53.15,27.64,17.53,9.76,34.81,19.98,51.89,30.51,17.13,10.56,34.06,21.43,50.87,32.5,16.79,11.05,33.46,22.3,50.08,33.61,8.04,5.47,16.06,10.96,24.09,16.45,1.11.76,2.77.21,3.42-.9.72-1.24.22-2.66-.9-3.42-16.68-11.41-33.37-22.81-50.15-34.08-16.77-11.26-33.63-22.39-50.65-33.26s-34.17-21.46-51.57-31.67-34.88-19.96-52.72-29.2-35.78-17.87-54.12-25.84c-18.41-8.01-37.12-15.33-56.14-21.78-18.85-6.39-38-11.92-57.39-16.43-21.26-4.95-42.8-8.63-64.47-11.29-21.61-2.65-43.34-4.23-65.1-4.96-21.83-.73-43.69-.61-65.52.14s-43.78,2.15-65.62,3.97c-21.83,1.82-43.62,4.07-65.39,6.54-21.72,2.47-43.42,5.13-65.09,8.04s-43,6.05-64.43,9.55c-21.42,3.5-42.78,7.33-64.05,11.6s-42.42,8.94-63.46,14.13-41.93,10.87-62.66,17.14c-20.24,6.12-40.34,12.74-60.17,20.1-17.89,6.63-35.56,13.97-52.52,22.73-16.79,8.66-32.86,18.76-47.43,30.81-7,5.79-13.62,12.04-19.76,18.74-2.17,2.37,1.36,5.91,3.54,3.54h0Z"/>
    <path class="st3" d="M-168.12,65.01c26.37,3.58,52.82,6.64,79.31,9.16,26.44,2.51,52.93,4.49,79.44,5.93,26.44,1.44,52.9,2.34,79.37,2.7s50.32.25,75.45-.94c25.06-1.19,50.1-3.5,74.86-7.57,24.59-4.04,48.92-9.87,72.46-18.08,23.28-8.13,45.71-18.57,67.39-30.29,21.54-11.65,42.38-24.54,62.97-37.79,22.08-14.21,43.93-28.76,65.66-43.49,21.86-14.82,43.6-29.82,65.31-44.86,5.26-3.64,10.52-7.29,15.78-10.93,1.11-.77,1.62-2.19.9-3.42-.64-1.1-2.31-1.67-3.42-.9-21.64,15-43.28,30-65.02,44.86-21.74,14.85-43.58,29.56-65.61,43.97-20.73,13.56-41.59,26.94-63.07,39.31-21.11,12.15-42.84,23.34-65.45,32.43-22.94,9.23-46.74,16.11-70.95,21.03s-48.91,7.92-73.61,9.67c-24.95,1.76-49.98,2.27-74.99,2.18-26.26-.09-52.52-.75-78.75-1.92-26.37-1.17-52.71-2.87-79-5.11-26.3-2.23-52.55-4.99-78.74-8.28-6.32-.79-12.65-1.62-18.96-2.48-1.34-.18-2.68.32-3.08,1.75-.32,1.17.4,2.89,1.75,3.08h0Z"/>
    <path class="st3" d="M-22.05-119.49c9.74,10.42,19.58,20.74,29.53,30.96s19.99,20.33,30.14,30.35,20.4,19.92,30.75,29.73S89.17-8.95,99.71.65s21.18,19.08,31.91,28.46c10.78,9.43,21.65,18.74,32.62,27.95s21.92,18.22,33.01,27.17,22.27,17.79,33.54,26.52,22.74,17.45,34.23,26.01c11.43,8.51,22.95,16.91,34.55,25.2s23.28,16.46,35.03,24.52,23.59,16.01,35.5,23.84,23.9,15.55,35.96,23.15,24.19,15.09,36.4,22.46c12.21,7.37,24.48,14.63,36.82,21.76,12.34,7.14,24.76,14.16,37.24,21.05,12.54,6.93,25.14,13.74,37.81,20.44,12.61,6.66,25.28,13.2,38.02,19.62,12.73,6.42,25.53,12.72,38.38,18.89,12.85,6.18,25.77,12.23,38.74,18.16,12.97,5.93,26,11.74,39.08,17.42,13.15,5.72,26.36,11.31,39.62,16.77,13.18,5.44,26.42,10.75,39.71,15.93,13.28,5.18,26.62,10.24,40,15.17,13.38,4.93,26.81,9.73,40.28,14.41,13.47,4.67,26.99,9.22,40.55,13.63,13.56,4.42,27.16,8.7,40.8,12.86,13.64,4.15,27.32,8.18,41.03,12.07s27.47,7.65,41.25,11.28c13.85,3.64,27.74,7.15,41.66,10.53s27.74,6.58,41.65,9.67,27.86,6.04,41.83,8.86,27.97,5.5,41.99,8.04c14.02,2.54,28.07,4.95,42.14,7.22s28.16,4.4,42.27,6.39,28.42,3.87,42.66,5.59,28.32,3.29,42.5,4.72,28.38,2.72,42.59,3.87,28.43,2.15,42.66,3.01,28.47,1.58,42.72,2.15,27.57.97,41.35,1.25c3.22.07,3.22-4.93,0-5-14.26-.29-28.52-.73-42.77-1.31-14.25-.58-28.49-1.31-42.72-2.18-14.16-.87-28.32-1.87-42.46-3.02s-28.4-2.45-42.58-3.89c-14.18-1.44-28.35-3.02-42.49-4.74-14.06-1.71-28.1-3.56-42.12-5.55-14.11-2-28.2-4.15-42.27-6.43s-27.98-4.68-41.94-7.22c-14.02-2.56-28.02-5.25-41.99-8.08-13.97-2.83-27.91-5.8-41.82-8.9s-27.8-6.34-41.65-9.71-27.67-6.87-41.45-10.51c-13.72-3.62-27.4-7.37-41.05-11.25s-27.39-7.93-41.02-12.1c-13.64-4.16-27.23-8.46-40.79-12.88s-27.07-8.98-40.54-13.66c-13.41-4.66-26.77-9.45-40.08-14.36-13.38-4.94-26.71-10-39.99-15.19s-26.52-10.51-39.7-15.95c-13.11-5.41-26.16-10.95-39.16-16.61-13.08-5.69-26.1-11.51-39.06-17.46s-25.75-11.95-38.54-18.11c-12.85-6.19-25.64-12.49-38.37-18.92s-25.4-12.98-38-19.65-25.14-13.46-37.62-20.37-24.88-13.94-37.22-21.08c-12.28-7.11-24.49-14.34-36.64-21.68s-24.33-14.87-36.38-22.48-24.04-15.34-35.94-23.18c-11.91-7.84-23.74-15.8-35.49-23.86s-23.42-16.25-35.02-24.54c-11.54-8.25-22.99-16.62-34.37-25.1-11.37-8.47-22.65-17.05-33.85-25.74s-22.43-17.59-33.51-26.55c-11.08-8.96-22.08-18.03-32.98-27.2s-21.62-18.37-32.29-27.72S112.58,5.63,102.05-3.97s-20.97-19.31-31.31-29.12-20.58-19.73-30.72-29.75-20.18-20.15-30.12-30.37-19.03-19.78-28.4-29.81c-2.2-2.36-5.73,1.19-3.54,3.54h0Z"/>
    <path class="st1" d="M391.17,596.11c16.62-5.48,33.14-11.26,49.55-17.36,16.45-6.11,32.78-12.53,48.98-19.28,16.23-6.76,32.33-13.83,48.27-21.23,15.93-7.4,31.7-15.12,47.3-23.19,15.52-8.03,30.86-16.39,46.01-25.1,15.17-8.73,30.15-17.8,44.9-27.24,14.71-9.41,29.2-19.18,43.42-29.31,14.26-10.15,28.25-20.68,41.96-31.56,13.57-10.77,26.85-21.9,39.8-33.4,12.99-11.53,25.65-23.42,37.94-35.69s24.14-24.8,35.62-37.73c11.55-13.01,22.69-26.38,33.39-40.1,11.14-14.29,21.82-28.94,31.97-43.96s20.55-31.64,29.95-47.98c9.37-16.28,18.16-32.9,26.36-49.81,8.26-17.04,15.91-34.37,22.96-51.94s13.38-35.12,19.15-53.01,10.93-36.11,15.44-54.42c4.5-18.31,8.36-36.79,11.56-55.37,3.21-18.66,5.76-37.45,7.63-56.29.9-9.03,1.63-18.07,2.22-27.12.09-1.35-1.21-2.5-2.5-2.5-1.43,0-2.41,1.15-2.5,2.5-1.2,18.67-3.06,37.3-5.6,55.83s-5.78,37.13-9.66,55.52c-3.86,18.31-8.36,36.49-13.5,54.49-5.15,18.07-10.94,35.96-17.34,53.62-6.38,17.6-13.37,34.97-20.97,52.08-7.6,17.1-15.81,33.94-24.59,50.47-8.82,16.59-18.22,32.87-28.2,48.79s-20.37,31.26-31.37,46.31c-10.16,13.9-20.77,27.45-31.81,40.66s-22.62,26.21-34.52,38.78-24.17,24.75-36.78,36.59-25.49,23.23-38.71,34.3-26.77,21.8-40.58,32.15c-13.91,10.42-28.09,20.48-42.5,30.18-14.4,9.69-29.03,19.02-43.88,28.01-14.93,9.04-30.08,17.73-45.41,26.08-15.36,8.36-30.9,16.38-46.61,24.07s-31.47,14.99-47.43,22c-15.94,7-32.02,13.67-48.23,20.04s-32.63,12.45-49.11,18.21c-7.94,2.77-15.9,5.48-23.89,8.11-3.04,1-1.74,5.83,1.33,4.82h0Z"/>
    <path class="st1" d="M425.66-153.12c8.32,23.64,22.35,44.62,38.7,63.44,16.66,19.18,35.62,36.2,54.52,53.12,21.3,19.07,42.76,37.97,64.59,56.42s44.36,36.71,67.31,54.09c21.77,16.48,44.08,32.23,66.99,47.1,22.07,14.33,44.65,27.87,67.67,40.61,23.01,12.74,46.46,24.7,70.27,35.88,23.77,11.15,47.9,21.54,72.32,31.17,24.52,9.67,49.35,18.58,74.42,26.73,24.96,8.12,50.17,15.5,75.56,22.16s51.3,12.67,77.19,17.93c25.89,5.26,51.93,9.8,78.06,13.66,26.32,3.88,52.74,7.06,79.22,9.56,29.2,2.76,58.48,4.7,87.79,5.87s58.29,1.58,87.45,1.28c29.33-.3,58.65-1.32,87.93-3,29.23-1.68,58.41-4.02,87.54-6.98,29.21-2.97,58.36-6.55,87.44-10.69,29.11-4.14,58.13-8.85,87.06-14.08,28.77-5.2,57.44-10.91,86.01-17.09,13.88-3,27.74-6.12,41.57-9.33,3.13-.73,1.81-5.55-1.33-4.82-28.46,6.62-57.02,12.8-85.68,18.48-28.68,5.69-57.46,10.89-86.32,15.55s-57.68,8.76-86.63,12.29-58.06,6.47-87.18,8.77c-29.17,2.31-58.39,3.98-87.63,4.97-29.14.98-58.31,1.28-87.46.84-29.16-.44-58.3-1.61-87.39-3.57s-55.77-4.46-83.53-7.83c-26-3.15-51.91-6.99-77.7-11.52-25.88-4.55-51.64-9.79-77.23-15.74s-51-12.62-76.2-20.02c-25.17-7.39-50.13-15.51-74.82-24.38-24.59-8.83-48.91-18.41-72.9-28.76-24.09-10.4-47.86-21.56-71.22-33.51s-46.19-24.6-68.62-38.06c-22.45-13.48-44.44-27.75-65.87-42.79-23.28-16.34-45.9-33.59-68.04-51.44s-44.02-36.48-65.52-55.31c-10.69-9.37-21.32-18.81-31.91-28.29-9.54-8.54-19.06-17.09-28.31-25.94-17.86-17.09-34.88-35.4-47.95-56.48-6.18-9.98-11.42-20.53-15.33-31.61-.45-1.27-1.71-2.12-3.08-1.75-1.23.34-2.2,1.8-1.75,3.08h0Z"/>
    <path class="st3" d="M604.89,693.99c16.86-6.27,33.61-12.86,50.22-19.77,16.68-6.93,33.22-14.17,49.63-21.73,16.34-7.53,32.54-15.36,48.58-23.5s31.93-16.58,47.66-25.32c15.66-8.7,31.16-17.7,46.48-26.99,15.45-9.36,30.72-19.02,45.8-28.96s29.73-20,44.31-30.42c14.69-10.5,29.18-21.28,43.46-32.32,14.2-10.98,28.2-22.23,41.97-33.74,13.45-11.25,26.67-22.78,39.45-34.79,12.75-11.99,25.07-24.46,36.66-37.58,11.53-13.05,22.35-26.74,32.13-41.16,9.8-14.45,18.47-29.63,25.85-45.45,7.23-15.51,13.29-31.56,18.28-47.92s8.94-33.02,12.11-49.82c3.22-17.06,5.64-34.26,7.56-51.51s3.36-34.8,4.54-52.25c1.19-17.58,2.14-35.17,3.11-52.76.97-17.54,1.97-35.07,3.27-52.59,1.3-17.57,2.89-35.12,5.06-52.6,1.02-8.25,2.19-16.49,3.51-24.7.21-1.33-.34-2.69-1.75-3.08-1.19-.33-2.86.41-3.08,1.75-2.77,17.26-4.86,34.63-6.52,52.03-1.66,17.45-2.89,34.94-3.96,52.44-1.07,17.54-1.98,35.09-2.99,52.63-1.01,17.46-2.11,34.92-3.59,52.35-1.46,17.24-3.28,34.46-5.77,51.58-2.46,16.93-5.56,33.77-9.58,50.4s-8.89,32.83-14.92,48.73c-6.07,15.99-13.32,31.52-21.8,46.38-8.56,14.99-18.33,29.29-29,42.86s-22.37,26.64-34.55,39.05c-12.24,12.47-25.04,24.37-38.17,35.89-13.26,11.64-26.85,22.93-40.61,33.98-13.92,11.18-28.05,22.09-42.38,32.73s-28.98,21.09-43.75,31.21-29.87,20.06-45.09,29.66c-15.15,9.56-30.48,18.84-45.98,27.83-15.5,8.99-31.17,17.68-47,26.08-15.83,8.4-31.81,16.5-47.94,24.3s-32.41,15.29-48.82,22.47c-16.35,7.16-32.84,13.99-49.45,20.52-8.07,3.17-16.16,6.26-24.28,9.28-1.26.47-2.13,1.69-1.75,3.08.33,1.22,1.8,2.22,3.08,1.75h0Z"/>
    <path class="st4" d="M548.27-272.05c11.69,15.3,23.39,30.6,35.2,45.81,11.81,15.21,23.72,30.34,35.84,45.31,12.07,14.91,24.33,29.66,36.88,44.16s25.39,28.76,38.6,42.67,26.64,27.32,40.59,40.35c13.82,12.91,28.08,25.37,42.81,37.23s30.12,23.29,45.92,33.89,32.54,20.72,49.56,29.79c18.81,10.02,38.19,18.94,57.93,26.98,19.77,8.05,39.9,15.18,60.26,21.59s42.02,12.43,63.29,17.67c21.27,5.24,42.7,9.88,64.21,14.05,21.62,4.19,43.32,7.91,65.08,11.3s43.74,6.48,65.65,9.38,43.57,5.59,65.37,8.26c22.33,2.73,44.65,5.52,67.02,7.93s45.22,4.46,67.92,5.54c22.65,1.08,45.35,1.22,67.99-.1,22.34-1.31,44.59-4.08,66.67-7.7,22.13-3.63,44.11-8.13,66.01-12.91,10.6-2.31,21.18-4.69,31.76-7.07,3.14-.71,1.81-5.53-1.33-4.82-21.8,4.9-43.61,9.8-65.54,14.12-21.83,4.3-43.8,8.05-65.91,10.6-22.34,2.57-44.78,3.8-67.27,3.73s-45.04-1.31-67.48-3.21-45.08-4.47-67.57-7.18-43.79-5.32-65.67-8.07-43.45-5.58-65.14-8.68-43.43-6.47-65.06-10.23-43.13-7.9-64.54-12.6c-21.32-4.67-42.53-9.88-63.55-15.76-20.63-5.77-41.09-12.17-61.26-19.38s-39.63-15.09-58.84-24.06-36.4-18.15-53.8-28.67c-16.18-9.79-31.87-20.38-47.06-31.64s-29.74-23.07-43.91-35.45-28-25.38-41.37-38.72-26.5-27.23-39.22-41.32-25.34-28.73-37.6-43.44c-12.29-14.74-24.34-29.68-36.24-44.74-11.83-14.98-23.51-30.08-35.13-45.22-5.6-7.29-11.18-14.6-16.76-21.9-.82-1.07-2.15-1.64-3.42-.9-1.05.62-1.72,2.34-.9,3.42h0Z"/>
    <path class="st4" d="M-123.32,342.4c21.9-.81,43.79,1.51,65.11,6.52s42,12.56,61.79,21.91,39.54,20.94,58.02,33.51c18.54,12.61,36.23,26.43,53.2,41.07,17.44,15.04,34.24,30.85,50.45,47.21s32.12,33.62,47.32,51.2,29.72,35.47,43.81,53.83c14.16,18.45,27.84,37.27,41.09,56.38,13.32,19.2,26.23,38.68,38.8,58.38,12.49,19.57,24.64,39.34,36.55,59.26,2.92,4.88,5.82,9.77,8.71,14.66,1.63,2.77,5.96.26,4.32-2.52-11.94-20.23-24.1-40.33-36.59-60.23-12.42-19.79-25.16-39.39-38.29-58.72-13.16-19.37-26.72-38.46-40.76-57.2-14.05-18.75-28.57-37.15-43.64-55.1-14.95-17.8-30.45-35.15-46.53-51.94-16.15-16.84-32.89-33.11-50.27-48.69-16.91-15.16-34.45-29.6-52.85-42.93s-37.24-25.28-57.17-35.7c-19.79-10.35-40.5-19.07-61.95-25.34-21.1-6.17-42.96-9.93-64.95-10.62-5.39-.17-10.79-.15-16.18.05-3.21.12-3.22,5.12,0,5h0Z"/>
    <path class="st4" d="M-69.31,554.79c15.14-5.9,30.22-11.96,45.23-18.19,15.02-6.24,29.97-12.66,44.82-19.29s29.62-13.48,44.26-20.56,29.02-14.33,43.33-21.87,28.58-15.4,42.63-23.53c13.97-8.08,27.77-16.44,41.37-25.12,13.65-8.71,27.1-17.73,40.32-27.08s26.19-19.04,38.9-29.06c12.45-9.82,24.65-19.96,36.52-30.48s22.59-20.66,33.31-31.58,20.92-22.13,30.63-33.84c9.76-11.77,18.99-23.98,27.53-36.67s16.16-25.49,23.04-38.91,13.19-27.92,18.31-42.47c5.5-15.64,9.82-31.68,13.16-47.92,3.36-16.36,5.75-32.92,7.44-49.53s2.71-33.41,3.3-50.16.79-33.63.86-50.45c.07-16.96.02-33.91.13-50.87s.37-33.68,1.07-50.5c.34-8.14.79-16.28,1.37-24.41.1-1.35-1.22-2.5-2.5-2.5-1.43,0-2.4,1.15-2.5,2.5-1.19,16.75-1.82,33.53-2.14,50.32s-.36,33.59-.38,50.38c-.02,16.86-.02,33.72-.29,50.59s-.79,33.36-1.86,50c-1.06,16.5-2.65,32.98-5.1,49.34s-5.73,32.59-10.11,48.54c-4.2,15.32-9.41,30.37-15.75,44.94-6.02,13.83-12.98,27.24-20.7,40.2s-16.16,25.39-25.21,37.4c-9.1,12.07-18.83,23.66-29,34.83-10.21,11.22-20.89,22.01-31.92,32.42-11.16,10.53-22.68,20.68-34.46,30.5-12.34,10.29-24.98,20.22-37.86,29.82s-25.99,18.82-39.32,27.75c-13.4,8.97-27.01,17.62-40.8,25.97-13.75,8.32-27.68,16.35-41.75,24.11s-28.48,15.33-42.92,22.6-28.91,14.26-43.53,21.04-29.49,13.41-44.37,19.81-29.7,12.54-44.66,18.55c-7.23,2.9-14.47,5.77-21.73,8.6-1.26.49-2.13,1.68-1.75,3.08.33,1.2,1.81,2.24,3.08,1.75h0Z"/>
    <path class="st4" d="M-325.7,233.41c20.87-9.35,41.74-18.7,62.55-28.21,20.77-9.49,41.47-19.13,62.03-29.05s41.07-20.18,61.31-30.85,40.01-21.63,59.59-33.2c19.52-11.55,38.72-23.65,57.47-36.41S14.38,49.41,32.14,35.19c16.57-13.26,32.64-27.16,47.78-42.05s28.72-30.04,41.3-46.58,23.39-33.6,32.29-52.01c8.8-18.22,15.55-37.47,19.39-57.36.96-4.96,1.72-9.95,2.34-14.96.16-1.34-1.27-2.5-2.5-2.5-1.49,0-2.33,1.15-2.5,2.5-2.44,19.9-7.92,39.38-15.65,57.86-7.77,18.58-17.91,36.15-29.43,52.64s-24.95,32.39-39.11,47.11S56.25,8.85,40.27,22.14C22.99,36.52,5.08,50.13-13.31,63.07c-18.42,12.96-37.32,25.25-56.55,36.97-19.41,11.82-39.17,23.06-59.17,33.85-19.93,10.75-40.1,21.05-60.42,31.03-20.36,10-40.87,19.69-61.47,29.19-20.71,9.56-41.51,18.94-62.32,28.27-4.99,2.24-9.98,4.47-14.98,6.71-1.23.55-1.53,2.34-.9,3.42.74,1.27,2.18,1.45,3.42.9h0Z"/>
    <path class="st1" d="M-127.8-134.9c-2.01,15.42,4.68,30.04,13.87,42.02,9.83,12.81,22.23,23.25,34.42,33.72s25.56,21.62,38.51,32.23S-14.95-5.8-1.87,4.7c13.08,10.5,26.17,20.99,39.2,31.55,13.01,10.54,25.96,21.16,38.76,31.95,12.77,10.75,25.4,21.67,37.8,32.84,12.36,11.13,24.51,22.52,36.33,34.23s23.28,23.7,34.33,36.1c11.02,12.37,21.63,25.12,31.67,38.3,10.75,14.11,20.86,28.71,30.39,43.67s18.56,30.39,27.05,46.03,16.52,31.6,24.14,47.71,14.88,32.48,21.8,48.95,13.91,34.01,20.36,51.21,12.57,34.53,18.34,51.97,11.21,34.99,16.3,52.64c5.09,17.65,9.84,35.4,14.24,53.24,4.4,17.84,8.45,35.76,12.15,53.75s7.04,36.06,10.04,54.19c1.45,8.79,2.82,17.6,4.1,26.42.19,1.34,1.89,2.07,3.08,1.75,1.43-.39,1.94-1.73,1.75-3.08-2.65-18.18-5.65-36.31-9-54.37s-7.07-36.06-11.13-53.98c-4.06-17.92-8.47-35.75-13.23-53.5s-9.81-35.25-15.23-52.72-11.23-34.99-17.35-52.31c-6.12-17.32-12.58-34.52-19.38-51.59s-13.83-33.8-21.24-50.48-14.83-32.43-22.86-48.35-16.5-31.58-25.51-46.95-18.45-30.26-28.56-44.82c-9.84-14.18-20.28-27.94-31.26-41.26-10.57-12.82-21.63-25.24-33.06-37.29-11.44-12.06-23.25-23.75-35.34-35.16-12.12-11.44-24.51-22.58-37.09-33.51s-25.31-21.64-38.16-32.22c-12.93-10.66-25.97-21.2-39.03-31.7C9.46,7.42-3.64-3.06-16.69-13.6s-26.03-21.12-38.9-31.85c-12.66-10.56-25.45-21.09-37.53-32.32-10.98-10.21-22.02-21.96-27.24-36.3-2.44-6.71-3.37-13.73-2.44-20.83.17-1.34-1.27-2.5-2.5-2.5-1.5,0-2.32,1.15-2.5,2.5h0Z"/>
    <path class="st1" d="M-192.25,439.33c23.15-8.6,46.02-17.95,68.55-28.05,22.41-10.04,44.48-20.81,66.18-32.29,21.7-11.48,43.03-23.67,63.93-36.54,20.97-12.91,41.51-26.51,61.59-40.77s39.56-29.08,58.6-44.57,37.14-31.11,54.54-47.96c17.28-16.73,33.57-34.48,48.2-53.58s27.46-39.39,37.55-61.13c10.22-22.03,17.73-45.37,21.53-69.38s3.96-47.95-.4-71.59c-1.06-5.77-2.4-11.48-4.01-17.11-.88-3.09-5.71-1.78-4.82,1.33,6.52,22.88,8.35,46.84,6.31,70.51-2.05,23.72-7.98,47.06-16.7,69.19-8.76,22.24-20.58,43.17-34.29,62.72s-29.07,37.37-45.61,54.27-34.51,33.08-52.82,48.44-37.78,30.65-57.41,45.02c-19.63,14.38-39.73,28.11-60.25,41.18-20.65,13.15-41.72,25.63-63.18,37.41s-43.04,22.73-65.08,33.03c-22.05,10.3-44.43,19.89-67.11,28.72-5.53,2.15-11.08,4.26-16.65,6.33-1.27.47-2.13,1.69-1.75,3.08.33,1.22,1.8,2.22,3.08,1.75h0Z"/>
    <path class="st1" d="M501.51-184.81c3.78,19.15,7.83,38.24,12.14,57.27,4.3,18.96,8.85,37.86,13.67,56.69s9.9,37.6,15.24,56.29c5.34,18.69,10.93,37.31,16.79,55.85s11.96,36.99,18.32,55.36c6.39,18.44,13.03,36.79,19.92,55.05,6.87,18.19,13.98,36.28,21.35,54.27,7.39,18.05,15.02,36,22.9,53.84s15.95,35.45,24.3,53.01,16.93,35,25.75,52.32,17.96,34.65,27.31,51.79c8.17,14.99,16.55,29.87,25.19,44.59,8.56,14.58,17.38,29.01,26.51,43.25,9.14,14.25,18.58,28.31,28.39,42.12,9.82,13.83,20,27.4,30.58,40.66,10.51,13.16,21.41,26.01,32.77,38.45,11.23,12.3,22.89,24.19,35.03,35.59,12.05,11.32,24.57,22.15,37.58,32.37s26.51,19.89,40.47,28.81c13.93,8.9,28.33,17.06,43.15,24.4,7.26,3.59,14.62,6.98,22.07,10.17,1.24.53,2.68.37,3.42-.9.62-1.05.35-2.89-.9-3.42-15.27-6.53-30.16-13.93-44.61-22.13-14.34-8.14-28.23-17.07-41.65-26.65s-26.13-19.67-38.5-30.38c-12.54-10.86-24.61-22.28-36.22-34.13-11.7-11.94-22.94-24.33-33.76-37.08-10.8-12.72-21.19-25.8-31.19-39.15s-19.9-27.37-29.33-41.41-18.47-28.23-27.26-42.62-17.3-28.95-25.58-43.64c-9.02-16.01-17.78-32.17-26.33-48.43-9.06-17.2-17.87-34.53-26.45-51.97s-16.91-35.01-25-52.69-15.87-35.32-23.44-53.15-14.89-35.77-21.97-53.81-13.95-36.29-20.55-54.57c-6.57-18.21-12.9-36.52-18.97-54.9s-11.93-37-17.52-55.62c-5.58-18.62-10.91-37.32-15.98-56.08-5.05-18.69-9.84-37.46-14.37-56.28s-8.83-37.86-12.85-56.88c-1.94-9.17-3.82-18.36-5.63-27.56-.26-1.33-1.84-2.08-3.08-1.75-1.38.38-2.01,1.75-1.75,3.08h0Z"/>
    <path class="st3" d="M570.92,675.04c11.8-10.79,23.49-21.71,35.04-32.77,11.56-11.07,23-22.28,34.28-33.64,11.29-11.36,22.43-22.86,33.4-34.52s21.78-23.46,32.4-35.44,20.96-23.98,31.15-36.21,20.25-24.72,30.06-37.33c9.84-12.66,19.47-25.48,28.85-38.48,9.34-12.94,18.43-26.04,27.26-39.33s17.4-26.74,25.68-40.37c8.25-13.58,16.22-27.33,23.88-41.25,7.86-14.28,15.4-28.74,22.58-43.38,7.29-14.86,14.21-29.9,20.74-45.11,6.57-15.28,12.76-30.72,18.53-46.32,5.75-15.53,11.09-31.21,16.01-47.02s9.38-31.72,13.41-47.77c4.02-16.02,7.58-32.15,10.66-48.37s5.66-32.48,7.77-48.83,3.7-32.72,4.76-49.15,1.59-32.87,1.57-49.33c-.02-16.47-.61-32.94-1.77-49.37-.56-7.97-1.27-15.93-2.1-23.87-.14-1.34-1.05-2.5-2.5-2.5-1.24,0-2.64,1.15-2.5,2.5,1.72,16.32,2.86,32.71,3.43,49.11s.58,32.92.04,49.36c-.54,16.37-1.61,32.73-3.2,49.03-1.58,16.25-3.68,32.44-6.27,48.56-2.6,16.22-5.7,32.35-9.25,48.39s-7.62,32.17-12.11,48.07-9.38,31.59-14.71,47.18-11.07,31.07-17.21,46.37c-6.11,15.24-12.62,30.32-19.5,45.23s-14.23,29.86-21.89,44.51c-7.38,14.12-15.08,28.07-23.08,41.85s-16.23,27.3-24.77,40.69-17.42,26.72-26.52,39.82-18.37,25.92-27.91,38.62c-9.5,12.66-19.24,25.14-29.18,37.46-9.99,12.38-20.2,24.6-30.59,36.66s-20.99,23.97-31.75,35.71c-10.81,11.81-21.8,23.46-32.94,34.95s-22.34,22.75-33.72,33.9-22.89,22.16-34.53,33.04c-5.66,5.28-11.34,10.54-17.05,15.76-2.38,2.18,1.16,5.7,3.54,3.54h0Z"/>
    <path class="st1" d="M1848.06,229.63c-14.76,5.22-29.4,10.78-43.92,16.65-14.56,5.89-28.99,12.1-43.29,18.6-14.15,6.44-28.17,13.18-42.04,20.2-13.94,7.05-27.73,14.38-41.38,21.98s-27.05,15.39-40.35,23.46-26.61,16.48-39.68,25.07c-13.09,8.6-26.04,17.44-38.83,26.48s-25.47,18.33-37.98,27.8c-12.53,9.48-24.9,19.16-37.13,29.02-12.24,9.87-24.33,19.92-36.28,30.15s-23.65,20.54-35.26,31.05-23.18,21.27-34.57,32.13-22.61,21.85-33.71,32.99-22.03,22.37-32.85,33.75c-10.69,11.24-21.25,22.61-31.54,34.21-10.4,11.72-20.53,23.67-30.26,35.95-9.74,12.29-19.09,24.89-27.86,37.9s-16.63,25.89-23.88,39.45c-7.24,13.54-13.7,27.52-19.15,41.88-5.41,14.25-9.8,28.89-12.95,43.8-1.55,7.34-2.77,14.74-3.73,22.18-.17,1.34,1.27,2.5,2.5,2.5,1.49,0,2.33-1.15,2.5-2.5,1.92-15.03,5.2-29.89,9.59-44.4,4.36-14.45,9.83-28.55,16.2-42.23,6.43-13.81,13.73-27.2,21.68-40.18,8.08-13.2,16.82-25.98,26.03-38.42,9.24-12.47,18.96-24.57,28.99-36.4s20.34-23.35,30.87-34.71,21.33-22.67,32.19-33.82c10.92-11.2,21.97-22.27,33.16-33.2,11.15-10.89,22.43-21.65,33.86-32.25,11.48-10.66,23.1-21.16,34.86-31.5s23.66-20.52,35.71-30.52c11.99-9.95,24.11-19.72,36.39-29.31s24.67-18.95,37.23-28.13c12.6-9.21,25.35-18.21,38.26-26.99s25.92-17.32,39.1-25.64c13.11-8.27,26.36-16.3,39.77-24.09,13.45-7.81,27.05-15.37,40.79-22.66,13.73-7.29,27.61-14.3,41.63-21.03,13.96-6.7,28.05-13.11,42.28-19.22s28.61-11.91,43.1-17.4c7.07-2.67,14.16-5.27,21.28-7.79,1.27-.45,2.12-1.71,1.75-3.08-.34-1.23-1.8-2.2-3.08-1.75h0Z"/>
    <path class="st1" d="M1017.77,678.08c16.92-6.88,33.31-14.98,49.22-23.95s31.27-18.76,46.36-29.01,29.9-20.93,44.59-31.75c14.74-10.85,29.35-21.89,43.82-33.1s28.71-22.53,42.84-34.06,28.13-23.24,41.98-35.12c13.79-11.83,27.43-23.83,40.93-36,13.55-12.22,26.95-24.61,40.19-37.16,13.24-12.55,26.33-25.27,39.25-38.15,12.92-12.88,25.69-25.92,38.29-39.12,12.54-13.14,24.92-26.43,37.13-39.88,11.29-12.44,22.42-25.02,33.34-37.79s21.72-25.82,32.22-39.03,20.76-26.63,30.69-40.28,19.5-27.45,28.72-41.55,17.96-28.3,26.3-42.84c8.3-14.46,16.14-29.18,23.46-44.16,7.32-14.98,14.1-30.22,20.28-45.7,6.14-15.38,11.67-31,16.5-46.83,4.84-15.87,8.98-31.95,12.35-48.2,1.64-7.9,3.09-15.83,4.36-23.79.21-1.33-.34-2.69-1.75-3.08-1.19-.33-2.86.4-3.08,1.75-2.61,16.37-6,32.62-10.14,48.67-4.12,15.97-8.97,31.75-14.46,47.3-5.5,15.55-11.63,30.86-18.35,45.92-6.75,15.12-14.06,29.99-21.86,44.6s-16.16,29.12-24.88,43.29c-8.77,14.25-17.96,28.24-27.48,42s-19.47,27.37-29.66,40.72c-10.16,13.31-20.6,26.39-31.28,39.29-10.69,12.92-21.62,25.65-32.72,38.22s-23.22,25.87-35.07,38.59c-12.39,13.29-24.94,26.43-37.65,39.41-12.77,13.03-25.7,25.91-38.78,38.62s-26.11,25.05-39.4,37.34c-13.4,12.39-26.95,24.61-40.65,36.65-13.64,12-27.44,23.83-41.37,35.48s-28.02,23.14-42.24,34.45-28.49,22.36-42.94,33.27c-14.5,10.95-29.12,21.73-43.91,32.29s-29.78,20.86-45.17,30.52c-15.35,9.64-31.11,18.65-47.39,26.62-7.84,3.84-15.8,7.43-23.89,10.72-1.25.51-2.13,1.66-1.75,3.08.33,1.18,1.82,2.26,3.08,1.75h0Z"/>
    <path class="st4" d="M959.22,654.67c15.2-9.98,30.12-20.39,44.75-31.19s29-22.02,43.05-33.59c13.98-11.5,27.66-23.37,41.04-35.56,13.38-12.19,26.47-24.71,39.26-37.52,12.81-12.83,25.32-25.96,37.53-39.35,12.24-13.42,24.2-27.1,35.87-41.02,11.7-13.95,23.11-28.14,34.25-42.54,11.21-14.5,22.17-29.19,32.85-44.09s21.05-29.91,31.2-45.13,20.07-30.65,29.75-46.21c9.68-15.57,19.13-31.29,28.36-47.14s18.22-31.83,27.02-47.92,17.35-32.26,25.73-48.55,16.52-32.6,24.5-49.03c9.06-18.66,17.9-37.42,26.52-56.28,8.89-19.43,17.55-38.97,25.98-58.6,8.45-19.69,16.68-39.47,24.67-59.35s15.71-39.74,23.21-59.75c7.5-20.01,14.77-40.1,21.81-60.28,7.03-20.18,13.83-40.44,20.39-60.77,3.17-9.83,6.28-19.67,9.34-29.54.96-3.08-3.87-4.4-4.82-1.33-6.33,20.41-12.89,40.75-19.7,61s-13.79,40.28-21.04,60.3c-7.28,20.09-14.79,40.1-22.53,60.01s-15.66,39.59-23.84,59.25-16.54,39.11-25.16,58.51c-8.67,19.53-17.57,38.96-26.69,58.28-8.14,17.23-16.45,34.37-24.97,51.41s-16.56,32.64-25.13,48.8c-8.56,16.13-17.32,32.16-26.29,48.06-8.98,15.91-18.17,31.71-27.59,47.36-9.42,15.65-19.06,31.16-28.95,46.51-9.91,15.39-20.06,30.63-30.48,45.68-10.39,15.03-21.04,29.88-31.95,44.53-10.8,14.5-21.87,28.8-33.22,42.88-11.37,14.1-23.01,27.99-34.94,41.62s-24.09,26.96-36.58,40.03c-12.51,13.1-25.31,25.93-38.41,38.44-13.09,12.5-26.47,24.69-40.16,36.54-13.64,11.81-27.58,23.28-41.81,34.37-14.2,11.07-28.7,21.75-43.48,32.04-7.22,5.02-14.51,9.95-21.86,14.78-2.68,1.76-.18,6.09,2.52,4.32h0Z"/>
    <path class="st4" d="M1208.52-189.51c18.16,16.01,35.35,33.09,51.82,50.84,16.44,17.72,32.16,36.1,47.51,54.76,15.45,18.78,30.52,37.86,45.62,56.92,15.05,19.01,30.12,38,45.58,56.68s31.24,36.91,47.81,54.52c16.54,17.58,33.82,34.47,52.09,50.25,18.27,15.78,37.46,30.49,57.43,44.05,19.91,13.52,40.61,25.89,61.94,37.04s43.44,21.13,65.98,29.79c22.53,8.66,45.56,16.02,68.94,22,5.66,1.45,11.34,2.81,17.04,4.1,3.13.71,4.47-4.11,1.33-4.82-23.48-5.3-46.64-11.97-69.34-19.97s-44.79-17.26-66.35-27.8-42.52-22.31-62.73-35.24-39.57-26.94-58.09-42.08c-18.67-15.27-36.38-31.69-53.26-48.92-16.91-17.26-33-35.3-48.61-53.74-15.57-18.39-30.66-37.17-45.64-56.03-15.08-18.99-30.06-38.07-45.32-56.93s-30.71-37.4-46.84-55.42-32.73-35.3-50.33-51.71c-4.29-4-8.64-7.94-13.04-11.82-1.01-.89-2.54-1-3.54,0-.91.91-1.02,2.64,0,3.54h0Z"/>
    <path class="st4" d="M-137.08,230.59c31.73-4.95,63.55-9.28,95.43-13.1,31.93-3.82,63.92-7.14,95.95-10.04s63.95-5.4,95.97-7.61c32.04-2.21,64.09-4.13,96.16-5.86,32.09-1.73,64.18-3.28,96.28-4.76,32.11-1.47,64.22-2.87,96.34-4.31s64.22-2.9,96.32-4.51c32.09-1.61,64.17-3.36,96.24-5.36s64.08-4.25,96.09-6.86c31.99-2.61,63.95-5.58,95.87-9.02,31.99-3.45,63.93-7.37,95.79-11.85,31.88-4.48,63.69-9.49,95.44-14.83,31.76-5.34,63.45-11.02,95.13-16.83s63.33-11.76,95-17.64,63.34-11.7,95.06-17.26c31.71-5.56,63.47-10.86,95.29-15.69,30.95-4.7,61.98-8.68,93.02-12.73,29.03-3.79,58.18-8.21,86.1-17.29,13.5-4.39,26.77-9.83,39.17-16.76,11.01-6.15,21.32-13.6,30.63-22.09,18.17-16.56,32.95-37.65,39.68-61.47,3.19-11.3,4.48-23.15,3.55-34.86-.11-1.35-1.07-2.5-2.5-2.5-1.27,0-2.61,1.15-2.5,2.5,1.92,24.27-6.11,47.89-19.77,67.76-13.97,20.33-33.47,36.88-55.26,48.32-25.59,13.44-53.86,20.83-82.19,25.86-29.67,5.27-59.71,8.27-89.56,12.39-31.73,4.38-63.38,9.29-94.97,14.55-31.76,5.29-63.46,10.93-95.14,16.72s-63.02,11.67-94.52,17.53c-31.66,5.89-63.33,11.74-95.05,17.34s-63.13,10.9-94.79,15.8-63.52,9.34-95.38,13.21c-31.7,3.85-63.46,7.19-95.26,10.13-31.97,2.95-63.97,5.5-96,7.74-31.88,2.24-63.78,4.17-95.69,5.92-32.09,1.76-64.19,3.33-96.29,4.81s-64.06,2.88-96.09,4.31c-32.03,1.42-64.05,2.88-96.07,4.46s-64.16,3.31-96.22,5.27c-31.88,1.95-63.74,4.15-95.57,6.69-31.98,2.55-63.93,5.46-95.83,8.82-31.8,3.35-63.55,7.17-95.23,11.53-15.33,2.11-30.65,4.36-45.95,6.74-1.34.21-2.07,1.88-1.75,3.08.39,1.42,1.74,1.95,3.08,1.75h0Z"/>
    <path class="st4" d="M-118.14,168.6c15.95.58,31.91,1.15,47.86,1.66s32.05.96,48.08,1.3c16.06.34,32.12.58,48.18.66,16.06.08,32.12,0,48.17-.28s32.04-.77,48.04-1.52c15.95-.74,31.88-1.74,47.8-3.05,15.77-1.29,31.51-2.89,47.21-4.84,15.78-1.96,31.52-4.27,47.19-6.98s31.01-5.8,46.37-9.35,30.57-7.55,45.66-12.05,30.07-9.51,44.84-15.04,29.51-11.66,43.91-18.3,27.27-13.19,40.55-20.48,26.25-15.01,39-23.13,25.27-16.64,37.54-25.5,24.46-18.17,36.34-27.71,23.48-19.32,34.89-29.36c11.38-10.02,22.55-20.28,33.53-30.73,11.04-10.52,21.89-21.23,32.58-32.11s21.18-21.9,31.55-33.06c5.03-5.41,10.02-10.86,14.99-16.33,2.16-2.38-1.37-5.92-3.54-3.54-10.18,11.21-20.48,22.31-30.93,33.27s-21.2,21.91-32.06,32.61c-10.81,10.65-21.79,21.12-32.97,31.37s-22.53,20.25-34.12,30.01-23.34,19.21-35.36,28.36-24.22,17.95-36.7,26.41c-12.45,8.45-25.15,16.53-38.1,24.2-13.01,7.71-26.28,15-39.78,21.81s-27.62,13.31-41.77,19.18-29.28,11.51-44.2,16.48c-14.94,4.98-30.05,9.44-45.28,13.44s-30.46,7.48-45.83,10.56c-15.42,3.09-30.92,5.75-46.47,8.04s-31.29,4.2-47,5.78c-15.78,1.59-31.59,2.85-47.42,3.84s-31.8,1.7-47.72,2.19-32.08.75-48.12.83-31.98-.02-47.97-.25-31.95-.59-47.92-1.03c-16-.44-31.99-.97-47.98-1.53-7.67-.27-15.33-.55-23-.82-3.22-.12-3.21,4.88,0,5h0Z"/>
    <path class="st3" d="M-114.59,177.49c16.46-7.29,33.18-13.98,50.1-20.11,16.87-6.11,33.95-11.67,51.16-16.72s34.61-9.61,52.09-13.72,35.29-7.82,53.06-11.11c17.75-3.29,35.56-6.19,53.43-8.77,17.84-2.58,35.72-4.82,53.63-6.81,18.08-2.01,36.19-3.75,54.32-5.29,18.04-1.53,36.1-2.87,54.17-4.06,18.34-1.21,36.69-2.28,55.05-3.28,19.76-1.07,39.52-2.04,59.29-2.93,19.68-.88,39.37-1.68,59.06-2.4,19.69-.72,39.38-1.37,59.08-1.95,19.7-.58,39.39-1.1,59.09-1.56,19.78-.46,39.57-.87,59.35-1.24,19.7-.36,39.41-.68,59.11-.96s39.41-.53,59.11-.75,39.58-.42,59.36-.61,39.08-.37,58.62-.49,38.71-.16,58.07.05,38.85.67,58.25,1.55c19.29.88,38.56,2.16,57.79,4.03s38.25,4.31,57.22,7.5c17.86,3,35.61,6.67,53.21,10.95s34.54,9.01,51.58,14.32c17.05,5.31,33.94,11.14,50.67,17.41,16.77,6.28,33.37,13.01,49.81,20.11,16.46,7.12,32.76,14.61,48.9,22.41s32.18,15.92,48.06,24.29,31.74,17.04,47.43,25.88,30.76,17.57,45.99,26.61c15.18,9.02,30.27,18.2,45.24,27.55,14.98,9.35,29.85,18.87,44.62,28.56,14.83,9.72,29.55,19.61,44.16,29.67s28.98,20.18,43.3,30.52c14.32,10.33,28.53,20.82,42.61,31.47,14.1,10.65,28.07,21.47,41.92,32.43,13.84,10.96,27.57,22.08,41.16,33.34s27.07,22.68,40.41,34.25c13.4,11.61,26.67,23.38,39.81,35.29s26.03,23.87,38.84,36.02,24.63,23.61,36.76,35.62c2.29,2.27,5.83-1.27,3.54-3.54-12.6-12.48-25.34-24.81-38.22-37-12.88-12.19-25.89-24.24-39.04-36.13-13.15-11.9-26.43-23.65-39.84-35.25-13.41-11.6-26.95-23.05-40.62-34.35-13.61-11.25-27.34-22.35-41.2-33.3-13.96-11.03-28.05-21.91-42.26-32.63-14.15-10.68-28.43-21.21-42.81-31.57-14.39-10.36-28.89-20.57-43.51-30.61-14.55-10-29.22-19.84-43.99-29.51s-29.78-19.26-44.83-28.64c-15.05-9.38-30.2-18.59-45.46-27.63-15.31-9.07-30.72-17.98-46.24-26.7s-31.52-17.45-47.47-25.82-32.05-16.5-48.3-24.31c-16.16-7.77-32.47-15.22-48.95-22.3-16.57-7.12-33.3-13.88-50.2-20.17s-33.78-12.08-50.92-17.38-34.41-10.07-51.83-14.25-35.49-7.86-53.43-10.82c-19.1-3.15-38.33-5.57-57.6-7.42s-38.66-3.12-58.04-3.97-38.83-1.3-58.25-1.49c-19.44-.2-38.87-.15-58.31-.02s-39.27.32-58.91.5c-19.79.19-39.58.39-59.36.61-19.7.22-39.41.47-59.11.76s-39.57.61-59.36.98c-19.78.37-39.57.78-59.35,1.25s-39.56.99-59.34,1.59c-19.69.59-39.39,1.24-59.08,1.97s-39.54,1.54-59.31,2.44-39.53,1.88-59.29,2.95c-18.35,1-36.7,2.08-55.03,3.31s-36.28,2.58-54.4,4.14-36.23,3.33-54.31,5.37-36.22,4.36-54.26,6.99c-17.86,2.61-35.67,5.55-53.4,8.87s-35.45,7.05-53.03,11.23S.02,131.47-17.26,136.6s-34.4,10.76-51.33,16.96c-16.38,6-32.57,12.54-48.52,19.61-1.23.55-1.52,2.35-.9,3.42.74,1.27,2.18,1.45,3.42.9h0Z"/>
    <path class="st4" d="M-209.59,510.81c25.65-4.94,51.43-9.24,77.29-12.91,25.68-3.65,51.45-6.67,77.27-9.12,25.88-2.46,51.82-4.36,77.78-5.73,26.07-1.38,52.16-2.23,78.26-2.61s52.12-.28,78.17.24c26.09.52,52.18,1.47,78.24,2.79,26.18,1.33,52.34,3.04,78.48,5.08s51.96,4.39,77.9,7.03c26.1,2.66,52.17,5.6,78.21,8.78,25.95,3.17,51.87,6.58,77.76,10.18,26,3.62,51.97,7.43,77.91,11.38s52.41,8.12,78.59,12.34c26.1,4.21,52.19,8.51,78.27,12.86,26.08,4.35,52.16,8.73,78.23,13.11,26.15,4.39,52.31,8.78,78.48,13.11,26,4.3,52,8.55,78.03,12.69,26.18,4.17,52.37,8.23,78.59,12.13,26.21,3.9,52.44,7.65,78.7,11.19,26.15,3.53,52.33,6.86,78.54,9.93,26.31,3.08,52.66,5.91,79.03,8.44,12.7,1.21,25.41,2.36,38.13,3.43,1.35.11,2.5-1.23,2.5-2.5,0-1.45-1.15-2.39-2.5-2.5-26.41-2.22-52.79-4.76-79.14-7.59-26.34-2.83-52.65-5.93-78.93-9.27-26.14-3.32-52.26-6.87-78.34-10.6-26.15-3.74-52.28-7.65-78.39-11.7-26.2-4.06-52.38-8.24-78.54-12.51-26.17-4.27-52.33-8.61-78.49-12.99-26.08-4.36-52.15-8.76-78.23-13.13-26.08-4.37-52.16-8.73-78.25-13.01-26.17-4.3-52.35-8.53-78.55-12.64-26.11-4.1-52.24-8.07-78.4-11.88-25.95-3.78-51.92-7.39-77.92-10.78-26-3.4-52.03-6.57-78.1-9.49-26.07-2.92-52.18-5.57-78.31-7.92-26.04-2.34-52.11-4.37-78.2-6.04-26.06-1.67-52.15-2.99-78.25-3.9-26.14-.92-52.3-1.43-78.46-1.49-26.12-.06-52.24.34-78.34,1.24s-51.97,2.29-77.9,4.23c-25.92,1.94-51.81,4.43-77.62,7.5-25.98,3.1-51.88,6.79-77.68,11.12-12.41,2.08-24.8,4.32-37.16,6.7-1.33.26-2.08,1.85-1.75,3.08.38,1.39,1.74,2,3.08,1.75h0Z"/>
    <path class="st4" d="M524.99,786.67c5.13-19.85,10.41-39.67,15.84-59.44,5.43-19.77,11-39.5,16.73-59.19s11.55-39.18,17.54-58.7,12.13-39,18.42-58.43,12.77-38.97,19.37-58.38,13.35-38.77,20.24-58.09c6.89-19.31,13.93-38.57,21.11-57.77,7.26-19.43,14.67-38.82,22.19-58.15s15.15-38.63,22.87-57.89,15.47-38.33,23.31-57.45,15.75-38.22,23.7-57.3,16-38.3,24.03-57.43,16.17-38.49,24.26-57.73c8.13-19.34,16.26-38.69,24.4-58.03,8.16-19.42,16.33-38.84,24.49-58.26,8.16-19.42,16.33-38.84,24.49-58.26,8.13-19.34,16.26-38.69,24.4-58.03,8.13-19.34,16.26-38.69,24.4-58.03,8.16-19.42,16.33-38.84,24.49-58.26s16.33-38.84,24.49-58.26c3.94-9.36,7.87-18.73,11.81-28.09.52-1.25-.56-2.75-1.75-3.08-1.44-.4-2.55.5-3.08,1.75-8.16,19.42-16.33,38.84-24.49,58.26-8.16,19.42-16.33,38.84-24.49,58.26s-16.26,38.69-24.4,58.03c-8.13,19.34-16.26,38.69-24.4,58.03-8.16,19.42-16.33,38.84-24.49,58.26s-16.33,38.84-24.49,58.26c-8.13,19.34-16.26,38.69-24.4,58.03-8.15,19.38-16.3,38.76-24.44,58.15s-16.08,38.26-24.09,57.4c-7.98,19.07-15.93,38.15-23.83,57.25s-15.75,38.22-23.52,57.37-15.53,38.48-23.15,57.78-15.14,38.63-22.53,58.02c-7.35,19.27-14.57,38.58-21.64,57.95-7.03,19.26-13.92,38.57-20.66,57.94-6.74,19.36-13.34,38.78-19.79,58.24s-12.71,38.82-18.84,58.3-12.12,39.01-17.97,58.57-11.58,39.34-17.15,59.07-10.99,39.51-16.27,59.32c-2.54,9.55-5.05,19.12-7.52,28.69-.81,3.12,4.02,4.45,4.82,1.33h0Z"/>
    <path class="st1" d="M322.84-294.46c4.54,24.4,13.03,47.82,22.62,70.64s19.46,44.36,29.53,66.38c9.95,21.74,20.09,43.4,30.41,64.97s20.77,42.91,31.43,64.23,21.5,42.55,32.52,63.69c11.02,21.13,22.23,42.18,33.61,63.12,11.38,20.94,22.95,41.79,34.69,62.53,11.74,20.75,23.66,41.39,35.75,61.93s24.36,40.98,36.81,61.31c12.48,20.4,25.14,40.68,37.97,60.86,12.79,20.11,25.75,40.12,38.89,60.01,13.17,19.96,26.52,39.8,40.04,59.52,13.47,19.66,27.11,39.21,40.92,58.64s27.78,38.74,41.92,57.93c14.14,19.19,28.44,38.26,42.91,57.2,14.5,18.98,29.16,37.85,43.98,56.58,14.66,18.53,29.5,36.93,44.64,55.07,15.15,18.14,30.61,36.02,46.51,53.51,15.92,17.5,32.29,34.6,49.23,51.13,16.85,16.45,34.26,32.34,52.32,47.47,8.8,7.37,17.75,14.56,26.85,21.56,1.07.82,2.8.16,3.42-.9.75-1.29.18-2.59-.9-3.42-18.62-14.33-36.58-29.53-53.93-45.37-17.41-15.89-34.21-32.42-50.52-49.44-16.34-17.05-32.18-34.58-47.64-52.43-15.43-17.81-30.49-35.95-45.3-54.27-14.92-18.45-29.61-37.07-44.16-55.81s-28.91-37.56-43.12-56.53c-14.29-19.08-28.42-38.27-42.39-57.59-13.96-19.32-27.76-38.76-41.39-58.31-13.63-19.56-27.09-39.23-40.39-59.01s-26.33-39.56-39.25-59.51c-12.91-19.95-25.66-40-38.23-60.17-12.61-20.23-25.05-40.56-37.31-61-12.26-20.44-24.35-40.99-36.26-61.63-11.91-20.65-23.65-41.4-35.2-62.25-11.56-20.85-22.93-41.8-34.13-62.84S467.56,21.31,456.76.14c-10.8-21.16-21.42-42.42-31.86-63.77s-20.76-42.92-30.86-64.51c-10.1-21.59-20.02-43.27-29.74-65.03s-20.1-44.85-27.72-68.2c-3.68-11.28-6.75-22.76-8.92-34.43-.25-1.33-1.85-2.08-3.08-1.75-1.39.38-1.99,1.74-1.75,3.08h0Z"/>
    <path class="st4" d="M-142.93,317.47c11.78-18.82,23.82-37.47,36.13-55.95,12.31-18.48,24.88-36.77,37.71-54.89,12.83-18.12,25.92-36.05,39.26-53.8,13.3-17.69,26.86-35.19,40.66-52.5s27.93-34.52,42.26-51.47S81.99,15.15,96.8-1.39s29.84-32.88,45.11-49,30.76-32.02,46.48-47.69,31.66-31.13,47.82-46.35c16.16-15.22,32.54-30.22,49.12-44.97,4.06-3.62,8.14-7.22,12.23-10.8,1.02-.89.91-2.62,0-3.54-1.01-1.01-2.52-.89-3.54,0-16.74,14.69-33.28,29.61-49.6,44.78s-32.42,30.56-48.3,46.18c-15.83,15.57-31.43,31.37-46.81,47.38-15.38,16.01-30.53,32.25-45.44,48.69C88.97-.28,74.29,16.37,59.85,33.23c-14.49,16.92-28.74,34.04-42.75,51.36-14.05,17.37-27.84,34.95-41.39,52.71-13.46,17.65-26.68,35.49-39.64,53.52-12.96,18.03-25.66,36.24-38.1,54.63s-24.62,36.95-36.52,55.69c-2.92,4.59-5.82,9.19-8.71,13.8-1.71,2.74,2.61,5.25,4.32,2.52h0Z"/>
    <path class="st3" d="M-213.14.12c18.71,22.06,37.45,44.08,56.25,66.06s37.41,43.68,56.19,65.47,37.59,43.53,56.44,65.25c18.91,21.77,37.86,43.51,56.86,65.21,19,21.7,38.04,43.36,57.12,64.98s38.1,43.09,57.21,64.57c19.11,21.49,38.27,42.94,57.46,64.35,19.31,21.53,38.65,43.03,58.05,64.48,19.28,21.34,38.61,42.63,57.97,63.89,19.37,21.26,38.77,42.48,58.22,63.66,4.75,5.18,9.51,10.35,14.26,15.52,2.18,2.37,5.71-1.17,3.54-3.54-19.58-21.28-39.12-42.61-58.61-63.97s-38.73-42.52-58.03-63.84c-19.3-21.32-38.56-42.67-57.78-64.07-19.27-21.45-38.5-42.95-57.69-64.48-19.19-21.53-38.33-43.1-57.43-64.7-19.05-21.54-38.05-43.13-57.02-64.74-18.96-21.62-37.88-43.27-56.76-64.97-18.99-21.82-37.93-43.67-56.83-65.56s-37.54-43.57-56.25-65.41c-18.71-21.84-37.37-43.72-55.99-65.64-4.55-5.35-9.1-10.71-13.64-16.07-.87-1.03-2.64-.9-3.54,0-1.02,1.02-.88,2.5,0,3.54h0Z"/>
    <path class="st1" d="M1629.75,626.46c-15.8,3.47-30.07-6.36-40.72-16.98-5.91-5.89-11.14-12.4-16.14-19.07-6.4-8.51-12.79-17.02-19.19-25.53-12.74-16.95-25.48-33.91-38.23-50.86-12.38-16.48-24.77-32.95-37.15-49.43-11.75-15.63-23.49-31.27-35.21-46.92s-23.45-31.33-35.13-47.02-23.45-31.54-35.12-47.34-23.22-31.52-34.76-47.33c-11.54-15.81-23.03-31.65-34.46-47.54-11.47-15.95-22.89-31.94-34.23-47.98s-22.51-32-33.64-48.08-22.18-32.2-33.13-48.4c-10.94-16.19-21.79-32.44-32.53-48.76s-21.36-32.69-31.86-49.15c-10.54-16.51-20.96-33.11-31.24-49.78s-20.34-33.29-30.3-50.06c-9.96-16.77-19.76-33.62-29.41-50.57s-19.21-34.11-28.56-51.31c-9.31-17.14-18.45-34.37-27.4-51.7-8.96-17.34-17.73-34.78-26.29-52.31-4.17-8.53-8.29-17.09-12.36-25.67-.58-1.22-2.33-1.54-3.42-.9-1.25.73-1.48,2.2-.9,3.42,8.4,17.71,17.02,35.32,25.83,52.83,8.84,17.56,17.87,35.03,27.09,52.39,9.18,17.29,18.54,34.49,28.07,51.59,9.57,17.17,19.3,34.24,29.19,51.22,9.85,16.92,19.86,33.75,30.01,50.49s20.45,33.41,30.87,50c10.43,16.59,20.98,33.11,31.65,49.54,10.68,16.45,21.47,32.82,32.36,49.13s21.99,32.69,33.12,48.94,22.29,32.33,33.55,48.4,22.71,32.24,34.17,48.29c11.42,15.99,22.91,31.93,34.44,47.83,11.54,15.9,23.14,31.77,34.78,47.6,11.64,15.83,23.32,31.63,35.03,47.41,11.71,15.77,23.45,31.52,35.22,47.26,11.8,15.79,23.63,31.56,35.46,47.32s23.92,31.85,35.89,47.77c12.84,17.09,25.68,34.18,38.53,51.26,12.6,16.77,25.03,33.68,37.82,50.3,9.99,12.97,21.7,26.26,37.23,32.54,7.13,2.88,14.87,3.63,22.39,1.98,3.14-.69,1.81-5.51-1.33-4.82h0Z"/>
    <path class="st4" d="M960.01,642.04c8.93-12.95,18.03-25.77,27.3-38.47,9.26-12.68,18.68-25.25,28.26-37.7s19.29-24.78,29.14-37c9.85-12.22,19.82-24.34,29.91-36.36,10.09-12.03,20.3-23.96,30.6-35.81s20.71-23.63,31.2-35.32,21.07-23.34,31.72-34.91,21.37-23.1,32.14-34.57c10.83-11.53,21.71-23.02,32.64-34.46,10.88-11.4,21.8-22.76,32.74-34.11s21.92-22.67,32.9-33.98c10.99-11.32,21.99-22.62,32.98-33.93,11-11.31,21.99-22.62,32.97-33.95,10.98-11.33,21.94-22.67,32.87-34.04,10.93-11.37,21.83-22.76,32.69-34.2s21.76-23.01,32.57-34.59,21.44-23.1,32.06-34.74c10.61-11.63,21.16-23.34,31.61-35.11s20.81-23.62,31.08-35.56c10.26-11.94,20.42-23.96,30.45-36.08,4.88-5.89,9.73-11.81,14.55-17.75.85-1.05,1.02-2.51,0-3.54-.88-.88-2.68-1.05-3.54,0-9.92,12.22-19.96,24.34-30.12,36.36s-20.52,24.07-30.93,35.97c-10.37,11.85-20.82,23.62-31.36,35.32s-21.26,23.44-32,35.07c-10.69,11.58-21.45,23.1-32.26,34.57s-21.67,22.91-32.57,34.3c-10.95,11.45-21.94,22.87-32.95,34.26-10.96,11.34-21.94,22.67-32.94,33.98-10.99,11.31-21.99,22.62-32.99,33.93s-22.08,22.72-33.1,34.1-21.91,22.67-32.83,34.04c-10.91,11.37-21.79,22.76-32.62,34.2s-21.7,23.01-32.47,34.59-21.36,23.1-31.93,34.74-21.06,23.34-31.46,35.12c-10.44,11.83-20.79,23.74-31.04,35.74-10.19,11.94-20.28,23.97-30.24,36.09s-19.8,24.35-29.51,36.69c-9.79,12.45-19.45,25.01-28.94,37.68-9.42,12.58-18.69,25.27-27.78,38.09-4.42,6.24-8.81,12.51-13.15,18.8-.77,1.11-.21,2.77.9,3.42,1.24.73,2.65.22,3.42-.9h0Z"/>
    <path class="st4" d="M1156.8-189.13c13.96,10.74,27.8,21.65,41.52,32.7s27.31,22.23,40.8,33.54c13.55,11.36,26.99,22.84,40.34,34.43,13.3,11.55,26.5,23.2,39.63,34.94s26.18,23.58,39.17,35.49c13.05,11.96,26.03,24,38.95,36.1,12.93,12.1,25.81,24.26,38.65,36.45s25.55,24.34,38.28,36.56,25.44,24.46,38.14,36.71c12.75,12.3,25.5,24.62,38.25,36.92s25.4,24.5,38.12,36.73c12.77,12.27,25.56,24.53,38.39,36.74s25.57,24.28,38.42,36.35c12.9,12.11,25.84,24.17,38.86,36.16,12.95,11.93,25.96,23.8,39.05,35.57,13.14,11.82,26.35,23.55,39.65,35.18s26.57,23.05,40.01,34.4,27.08,22.67,40.78,33.81c13.65,11.09,27.41,22.04,41.29,32.83,14,10.88,28.13,21.61,42.38,32.16,6.84,5.06,13.72,10.08,20.62,15.06,1.1.79,2.78.19,3.42-.9.74-1.26.2-2.63-.9-3.42-14.34-10.34-28.55-20.86-42.62-31.55-13.95-10.6-27.78-21.37-41.48-32.29-13.81-11-27.5-22.15-41.09-33.43-13.53-11.23-26.95-22.6-40.28-34.07-13.33-11.48-26.57-23.07-39.72-34.75-13.22-11.74-26.35-23.57-39.41-35.48-13.07-11.92-26.07-23.91-39.01-35.97s-25.74-24.09-38.54-36.2c-12.81-12.12-25.57-24.29-38.31-36.49s-25.56-24.53-38.32-36.83c-12.7-12.25-25.4-24.51-38.09-36.76-12.75-12.31-25.5-24.62-38.27-36.91-12.71-12.24-25.44-24.46-38.2-36.64s-25.65-24.43-38.54-36.58c-12.83-12.1-25.7-24.14-38.64-36.12s-26.03-23.99-39.14-35.87-26.19-23.57-39.41-35.21c-13.27-11.69-26.62-23.28-40.08-34.75-13.4-11.42-26.89-22.73-40.5-33.9-13.66-11.22-27.44-22.3-41.34-33.23-6.74-5.3-13.52-10.57-20.32-15.8-1.07-.82-2.8-.16-3.42.9-.75,1.29-.18,2.59.9,3.42h0Z"/>
    <path class="st3" d="M1419.62,621.37c1.08-28.88,2.34-57.75,3.76-86.61,1.43-28.86,3.03-57.72,4.81-86.56,1.77-28.76,3.72-57.51,5.84-86.25,2.12-28.74,4.41-57.46,6.87-86.18,2.46-28.71,5.1-57.41,7.91-86.09s5.79-57.34,8.94-85.99,6.48-57.27,9.98-85.87,7.15-57.07,10.99-85.57,7.86-57.1,12.05-85.61c4.2-28.59,8.57-57.16,13.12-85.7,1.1-6.91,2.21-13.82,3.33-20.73.22-1.33-.35-2.69-1.75-3.08-1.19-.33-2.86.41-3.08,1.75-4.64,28.61-9.11,57.24-13.4,85.9-4.27,28.5-8.37,57.02-12.29,85.57-3.93,28.61-7.7,57.24-11.29,85.89-3.61,28.76-7.04,57.53-10.29,86.33s-6.3,57.29-9.2,85.96c-2.89,28.67-5.62,57.36-8.16,86.06-2.56,28.79-4.94,57.59-7.15,86.4-2.21,28.81-4.24,57.64-6.1,86.48-1.86,28.76-3.54,57.52-5.05,86.3s-2.85,57.56-4.01,86.36c-.29,7.07-.56,14.15-.83,21.23-.12,3.22,4.88,3.21,5,0h0Z"/>
    <path class="st1" d="M1148.25-114.14c11.29,10.12,22.51,20.32,33.66,30.6,11.15,10.28,22.22,20.64,33.22,31.08,10.94,10.39,21.82,20.85,32.61,31.39,10.85,10.59,21.62,21.26,32.32,32.01,10.7,10.75,21.32,21.57,31.86,32.46,10.54,10.9,21.01,21.87,31.4,32.91,10.39,11.04,20.7,22.16,30.93,33.35,10.18,11.14,20.29,22.34,30.31,33.62s20.07,22.74,29.98,34.21c9.91,11.47,19.74,23.02,29.49,34.63s19.42,23.3,29,35.05,19.09,23.57,28.5,35.45c9.38,11.83,18.67,23.73,27.88,35.69,9.2,11.96,18.32,23.98,27.35,36.07,9.08,12.15,18.07,24.36,26.97,36.63s17.72,24.61,26.45,37.01,17.37,24.86,25.93,37.38c8.55,12.52,17.02,25.1,25.39,37.74,8.33,12.58,16.58,25.22,24.73,37.91,8.2,12.76,16.3,25.57,24.31,38.45,3.89,6.25,7.76,12.51,11.6,18.79,1.68,2.74,6.01.23,4.32-2.52-7.92-12.93-15.94-25.8-24.05-38.62-8.11-12.81-16.3-25.57-24.59-38.27-8.29-12.7-16.67-25.34-25.13-37.91s-17.02-25.1-25.67-37.55c-8.65-12.46-17.38-24.85-26.2-37.19-8.82-12.33-17.73-24.6-26.72-36.81-8.99-12.21-18.08-24.35-27.24-36.43s-18.5-24.2-27.87-36.2-18.75-23.83-28.26-35.65-19.09-23.57-28.76-35.25c-9.67-11.68-19.42-23.29-29.25-34.84s-19.75-23.02-29.74-34.42c-9.99-11.4-20.07-22.74-30.22-34-10.15-11.26-20.39-22.45-30.7-33.57-10.31-11.12-20.7-22.16-31.17-33.13s-21.02-21.86-31.64-32.68c-10.62-10.82-21.32-21.56-32.1-32.23-10.78-10.67-21.63-21.26-32.55-31.77s-21.93-20.95-33-31.31c-11.07-10.36-22.22-20.64-33.44-30.84-5.45-4.95-10.91-9.88-16.39-14.8-2.39-2.14-5.94,1.38-3.54,3.54h0Z"/>
  </g>
</svg>