<?xml version="1.0" encoding="UTF-8"?>
<svg xmlns="http://www.w3.org/2000/svg" version="1.1" viewBox="0 0 400 400">
  <defs>
    <style>
      .cls-1, .cls-2 {
        stroke: #231f20;
      }

      .cls-1, .cls-2, .cls-3, .cls-4, .cls-5 {
        stroke-miterlimit: 10;
      }

      .cls-1, .cls-6, .cls-5 {
        fill: #a5d936;
      }

      .cls-7 {
        fill: #ffb9e6;
      }

      .cls-2 {
        fill: #031700;
      }

      .cls-8 {
        fill: #49005c;
      }

      .cls-9 {
        fill: #733500;
      }

      .cls-3, .cls-4 {
        stroke: #fff;
      }

      .cls-3, .cls-4, .cls-5 {
        stroke-width: .75px;
      }

      .cls-3, .cls-10 {
        fill: #c6c6c4;
      }

      .cls-4, .cls-11 {
        fill: #fff;
      }

      .cls-12 {
        fill: #ffee04;
      }

      .cls-13 {
        fill: #0554f2;
      }

      .cls-14 {
        fill: #e60001;
      }

      .cls-15 {
        fill: #45f2ff;
      }

      .cls-16 {
        fill: #ff8e00;
      }

      .cls-17 {
        fill: #038c17;
      }

      .cls-5 {
        stroke: #000;
      }
    </style>
  </defs>
  <!-- Generator: Adobe Illustrator 28.7.5, SVG Export Plug-In . SVG Version: 1.2.0 Build 176)  -->
  <g>
    <g id="Layer_1">
      <rect class="cls-5" width="400" height="400"/>
      <rect class="cls-4" x="10.72" y="11.48" width="377.05" height="377.05"/>
      <g>
        <polygon class="cls-14" points="355.57 21.68 250.24 47.5 246.52 37.3 351.84 11.48 355.57 21.68"/>
        <polygon class="cls-16" points="359.29 31.88 253.96 57.71 250.24 47.5 355.57 21.68 359.29 31.88"/>
        <polygon class="cls-12" points="363.01 42.09 257.69 67.91 253.96 57.71 359.29 31.88 363.01 42.09"/>
        <polygon class="cls-17" points="366.61 51.97 261.28 77.79 257.56 67.59 362.89 41.76 366.61 51.97"/>
        <polygon class="cls-8" points="373.59 71.11 268.27 96.94 264.55 86.73 369.87 60.91 373.59 71.11"/>
        <polygon class="cls-13" points="370.17 61.74 264.85 87.56 261.13 77.36 366.45 51.54 370.17 61.74"/>
        <g>
          <line class="cls-2" x1="250.06" y1="36.34" x2="301.97" y2="56.05"/>
          <path class="cls-2" d="M301.97,56.05l-29.88,40.65,29.88-40.65Z"/>
          <path class="cls-2" d="M250.06,36.34l-5.83,1.3,5.83-1.3Z"/>
          <path class="cls-2" d="M272.08,96.7l-5.83,1.3,5.83-1.3Z"/>
          <path class="cls-2" d="M244.23,37.64l22.04,60.41-22.04-60.41Z"/>
        </g>
        <g>
          <path d="M246.51,37.01c4.06-1.32,8.56.43,12.45,2.1,14.06,6.05,28.42,11.61,43.03,16.67-3.14,5.44-6.53,10.78-10.16,16-1.57,2.27-3.19,4.52-4.81,6.77-.87,1.21-1.74,2.42-2.64,3.61-3.65,4.85-7.76,9.46-12.28,13.77-1.11,1.06-2.63,2.19-4.26,1.81-7.92-19.91-15.27-39.97-22.06-60.15"/>
          <path d="M247.17,39.42c4.33-1.29,8.85,1.15,12.75,2.8,4.51,1.92,9.03,3.79,13.58,5.61,9.19,3.67,18.47,7.12,27.82,10.37l-1.49-3.67c-4.57,7.88-9.65,15.39-14.97,22.77-2.45,3.4-4.98,6.71-7.75,9.85-1.43,1.62-2.92,3.2-4.44,4.74-.77.77-1.54,1.55-2.34,2.29-.39.36-1.22,1.27-1.83,1.17l1.75,1.75c-6.15-15.47-11.98-31.06-17.47-46.77-1.56-4.45-3.09-8.92-4.59-13.39-1.02-3.03-5.85-1.73-4.82,1.33,5.25,15.6,10.82,31.09,16.71,46.45,1.46,3.81,2.95,7.62,4.45,11.42.39,1,.7,2.28,1.35,3.13.75.97,2.02,1.13,3.16,1.01,1.99-.2,3.59-1.4,5-2.73,5.66-5.38,10.59-11.4,15.14-17.73,5.32-7.39,10.4-14.9,14.97-22.77.85-1.47.02-3.15-1.49-3.67-9.66-3.35-19.24-6.92-28.72-10.73-4.59-1.84-9.16-3.75-13.71-5.69s-9.42-3.83-14.38-2.36c-3.08.92-1.77,5.74,1.33,4.82h0Z"/>
        </g>
        <path class="cls-9" d="M247.16,39.42c3.38-1.14,7.25.64,10.59,2.32,12.11,6.09,24.45,11.73,36.99,16.9-2.44,5.05-5.08,10-7.93,14.84-1.24,2.1-2.51,4.18-3.79,6.26-.69,1.12-1.37,2.24-2.08,3.34-2.88,4.48-6.17,8.72-9.82,12.67-.89.97-2.13,2-3.52,1.6-7.48-19.01-14.5-38.15-21.03-57.39"/>
        <path class="cls-15" d="M246.65,41.41c3.12-1.05,6.7.59,9.8,2.14,11.2,5.62,22.61,10.83,34.21,15.6-2.26,4.66-4.7,9.24-7.34,13.71-1.15,1.94-2.33,3.86-3.51,5.79-.63,1.03-1.27,2.07-1.93,3.08-2.67,4.14-5.71,8.06-9.09,11.71-.83.89-1.97,1.85-3.26,1.47-6.91-17.56-13.39-35.23-19.43-53.01"/>
        <path class="cls-7" d="M246.2,43.26c2.68-.93,5.83.69,8.56,2.21,9.87,5.52,19.93,10.65,30.12,15.37-1.82,4.35-3.8,8.6-5.96,12.76-.94,1.81-1.9,3.59-2.87,5.38-.52.96-1.04,1.92-1.58,2.87-2.19,3.84-4.71,7.47-7.53,10.84-.69.82-1.65,1.7-2.78,1.32-6.52-16.67-12.66-33.44-18.42-50.29"/>
        <path class="cls-11" d="M248.1,48.51c2.16-.74,4.68.5,6.86,1.68,7.88,4.25,15.91,8.19,24.06,11.82-1.5,3.4-3.13,6.74-4.9,10-.77,1.42-1.56,2.82-2.35,4.22-.43.75-.85,1.5-1.29,2.25-1.8,3.02-3.85,5.86-6.15,8.51-.56.65-1.34,1.34-2.25,1.05-5.08-12.98-9.87-26.03-14.35-39.16"/>
        <path class="cls-11" d="M260.97,91.17c.98,2.92,1.95,5.83,2.93,8.75.41,1.24,1.74,2.18,3.08,1.75,1.23-.4,2.19-1.75,1.75-3.08-.98-2.92-1.95-5.83-2.93-8.75-.41-1.24-1.74-2.18-3.08-1.75-1.23.4-2.19,1.75-1.75,3.08h0Z"/>
      </g>
      <polygon class="cls-3" points="328.49 266.91 319.78 268.91 239.31 33.56 248.03 31.56 328.49 266.91"/>
      <g>
        <path class="cls-6" d="M150.78,62.77c2.05,1.48,5.46.85,7.39-.73s2.76-3.84,3.52-5.99c2.9-8.22,5.81-16.44,8.71-24.66.21-.61.46-1.26,1.07-1.65.5-.33,1.16-.42,1.78-.58,1.99-.51,3.65-1.83,4.32-3.45.92-2.22-.17-4.92-2.57-6.19s-5.9-.98-7.87.73-2.13,4.63-.29,6.44c-4.95,11.75-9.9,23.5-14.86,35.24"/>
        <path d="M149.83,64.39c2.24,1.47,5.14,1.32,7.52.29,2.52-1.09,4.17-3.29,5.23-5.75,1.24-2.89,2.17-5.93,3.22-8.9,1.15-3.26,2.3-6.52,3.45-9.77.55-1.55,1.1-3.1,1.64-4.65.27-.78.55-1.55.82-2.33.2-.55.31-1.52.75-1.93.3-.28.88-.28,1.28-.39.64-.18,1.27-.42,1.87-.72,1.23-.62,2.33-1.57,3.09-2.72,1.42-2.14,1.36-4.96-.03-7.1s-3.81-3.35-6.36-3.55c-2.8-.22-5.88.81-7.52,3.17-1.75,2.51-1.35,5.77.7,7.95l-.48-1.82c-4.95,11.75-9.9,23.5-14.86,35.24-.4.94.43,2.05,1.31,2.31,1.08.31,1.91-.38,2.31-1.31,4.95-11.75,9.9-23.5,14.86-35.24.26-.61-.07-1.38-.48-1.82-1.06-1.13-.92-2.81.29-3.78,1.32-1.06,3.37-1.21,4.93-.7,1.45.47,2.79,1.81,2.62,3.44-.18,1.82-2.07,2.75-3.63,3.14-.98.25-1.89.57-2.62,1.31-.8.83-1.12,2.01-1.49,3.07-.88,2.48-1.75,4.96-2.63,7.45-1.78,5.04-3.56,10.08-5.34,15.12-.76,2.15-1.44,4.69-3.29,6.19-1.43,1.16-3.67,1.63-5.27.58-2.02-1.33-3.9,1.92-1.89,3.24h0Z"/>
      </g>
      <g>
        <path class="cls-6" d="M134.45,70.36c2.71-.31,4.36-2.82,4.16-5.06s-1.73-4.22-3.21-6.1c-5.68-7.18-11.35-14.37-17.03-21.55-.42-.53-.86-1.11-.82-1.74.03-.52.38-1,.63-1.48.84-1.57.7-3.46-.35-4.94-1.44-2.03-4.64-3.12-7.39-2.47-2.75.65-4.76,3.01-4.49,5.35s2.88,4.35,5.74,4.4c7.58,10.76,15.17,21.53,22.75,32.29"/>
        <path d="M134.95,72.16c2.44-.37,4.42-2.15,5.21-4.46.89-2.58-.16-5.27-1.61-7.41-1.77-2.61-3.89-5.03-5.85-7.51-2.06-2.61-4.13-5.22-6.19-7.84s-4.23-5.36-6.35-8.03c-.17-.22-.61-.6-.65-.87-.01-.09.06-.13.09-.31.11-.63.65-1.28.82-1.94.37-1.52.16-3.16-.54-4.55-2.43-4.77-9.5-5.55-13.39-2.25-2.17,1.84-3.1,4.89-1.8,7.5s4.19,4.02,7.01,4.15l-1.62-.93c7.58,10.76,15.17,21.53,22.75,32.29,1.38,1.96,4.63.09,3.24-1.89-4.61-6.54-9.22-13.08-13.82-19.62-2.3-3.27-4.61-6.54-6.91-9.81-.92-1.31-1.88-3.6-3.63-3.79-1.34-.14-2.65-.58-3.47-1.74-1.64-2.33,1.65-4.39,3.68-4.45,2.34-.07,5.81,1.59,4.79,4.47-.27.77-.79,1.4-.95,2.22-.17.88.07,1.76.53,2.53.97,1.62,2.39,3.08,3.56,4.57,2.48,3.13,4.95,6.27,7.43,9.4,2.68,3.39,5.62,6.7,8.05,10.28.78,1.15,1.71,2.63,1.37,4.09-.32,1.37-1.41,2.08-2.73,2.27-1,.15-1.56,1.41-1.31,2.31.3,1.07,1.3,1.46,2.31,1.31h0Z"/>
      </g>
      <g>
        <path class="cls-6" d="M140.25,377.07c4.75-31.53,9.49-63.06,14.24-94.59.36-2.4.79-4.93,2.65-6.81,1.86-1.88,5.67-2.66,7.75-.95-.47,11.67-5.73,22.87-7.29,34.48-1.35,10.06.09,20.2.28,30.32.26,14.26-1.99,28.54-6.66,42.28-.39,1.16-.84,2.36-1.87,3.22-1.11.92-2.73,1.29-4.27,1.58-7.74,1.48-15.73,2.11-23.67,1.86-3.19-.1-6.5-.37-9.26-1.69s-4.82-3.96-4.14-6.52c.94-3.56,6.08-4.98,10.42-5.77,7.14-1.3,15.32-2.45,21.2,1.12"/>
        <path d="M142.06,377.57c4.42-29.39,8.85-58.79,13.27-88.18.32-2.13.64-4.27.96-6.4.23-1.48.43-3.04,1.08-4.41,1.1-2.31,4.27-3.95,6.55-2.23l-.93-1.62c-.58,12.64-6.41,24.34-7.56,36.92-.61,6.59-.16,13.21.21,19.8s.5,12.9.03,19.36-1.48,12.8-2.98,19.07c-.73,3.09-1.59,6.14-2.55,9.16-.4,1.26-.72,2.74-1.44,3.87s-2.1,1.46-3.36,1.74c-6.31,1.38-12.87,1.92-19.33,2-3.09.04-6.29.1-9.35-.44-2.41-.42-5.32-1.29-6.56-3.62-2.57-4.84,8.18-6.2,10.8-6.64,5.77-.97,12.46-1.82,17.75,1.28,2.09,1.22,3.98-2.02,1.89-3.24-4.02-2.36-8.76-2.85-13.34-2.57s-9.21.92-13.5,2.25c-3.54,1.1-7.91,3.43-7.72,7.76.21,4.96,5.39,7.63,9.68,8.39,5.27.93,10.86.69,16.18.35,2.75-.18,5.49-.47,8.23-.85,2.57-.36,5.31-.63,7.78-1.46,2.32-.77,3.86-2.25,4.77-4.51.96-2.4,1.66-4.93,2.37-7.42,1.5-5.32,2.65-10.73,3.44-16.2s1.22-10.62,1.3-15.97-.3-11.15-.59-16.72-.47-11.26.19-16.86c.62-5.25,2.08-10.38,3.49-15.47s2.82-10.21,3.51-15.46c.16-1.2.29-2.41.36-3.62.09-1.46-.31-2.35-1.67-3.02-1.82-.9-4.03-.89-5.93-.24-4.95,1.69-5.96,6.49-6.66,11.09-.84,5.58-1.68,11.17-2.52,16.75-3.41,22.66-6.82,45.32-10.23,67.99l-1.26,8.38c-.15,1.01.25,2,1.31,2.31.88.25,2.16-.31,2.31-1.31h0Z"/>
      </g>
      <g>
        <path class="cls-6" d="M206.61,376.31c-4.08-33.64-8.15-67.28-12.23-100.92-.31-2.56-.68-5.26-2.27-7.26s-4.87-2.84-6.66-1.01c.41,12.46,4.92,24.4,6.26,36.79,1.16,10.73-.08,21.56-.24,32.35-.23,15.21,1.71,30.45,5.72,45.11.34,1.23.72,2.52,1.61,3.43.96.99,2.34,1.38,3.67,1.69,6.65,1.58,13.51,2.25,20.34,1.99,2.74-.11,5.59-.39,7.96-1.8s4.14-4.22,3.56-6.95c-.81-3.8-5.23-5.32-8.95-6.16-6.14-1.39-13.16-2.61-18.22,1.19"/>
        <path d="M208.49,376.31c-2.78-22.92-5.56-45.84-8.33-68.77-1.37-11.29-2.54-22.62-4.12-33.87-.61-4.33-2.66-9.08-7.65-9.42-2.12-.15-4.81.92-4.79,3.33.02,2.64.41,5.31.8,7.91,1.6,10.76,5.09,21.17,5.76,32.07s-.74,22.64-.54,33.97,1.52,22.09,3.93,32.87c.6,2.68,1.23,5.37,2.01,8.01.7,2.38,1.93,4.24,4.28,5.21s4.87,1.3,7.29,1.7c2.67.44,5.37.76,8.07.93,4.97.31,10.78.69,15.43-1.4,4-1.8,6.94-6.44,5.14-10.78-1.57-3.8-5.85-5.37-9.56-6.24-4.53-1.07-9.28-1.96-13.93-1.19-2.17.36-4.27,1.2-6.06,2.5-.83.6-1.21,1.62-.67,2.57.46.81,1.75,1.27,2.57.67,4.34-3.15,9.89-2.45,14.83-1.42,3.16.65,10.51,1.84,9.55,6.58-1.15,5.66-9.45,5.19-13.73,5.12-3.17-.05-6.34-.28-9.47-.75-1.49-.22-2.98-.49-4.46-.8-1.31-.28-2.88-.46-4.05-1.15-1.03-.6-1.36-1.63-1.67-2.71-.46-1.58-.85-3.18-1.24-4.78-.76-3.11-1.42-6.24-1.99-9.39-1.16-6.37-1.91-12.81-2.28-19.28s-.27-12.92.02-19.38.67-13.07.36-19.61c-.68-14.14-6.12-27.54-6.64-41.67l-.55,1.33c2.04-1.9,4.45,1.37,4.97,3.03,1.04,3.28,1.13,6.96,1.54,10.36l2.76,22.76c1.86,15.34,3.72,30.67,5.58,46.01l3.12,25.73c.12,1.01.77,1.88,1.88,1.88.92,0,2-.86,1.88-1.88h0Z"/>
      </g>
      <g>
        <path class="cls-6" d="M127.43,180.58c3.66,1.31,6.83,3.54,8.95,6.32-11.71,10.17-23.42,20.33-35.14,30.5-2.92,2.53-5.9,5.14-7.54,8.36-2.04,3.99-1.81,8.48-1.49,12.8.83,11.13,2.61,23.34,12.53,30.97,3.33,2.56,7.38,4.43,10.62,7.06,3.24,2.64,5.65,6.46,4.41,10.06-9.31-1.05-15.38-8.79-19.83-14.85-1.98,4.03,2.08,8,3.61,12.16s1.08,9.86-3.9,11.34c-4.96-6.57-7.82-14.18-8.24-21.89-2.88,5.7-7.33,10.85-12.93,14.97-.89.66-2.11,1.33-3.2.91-.75-.29-1.11-.99-1.32-1.65-2.18-6.81,4.15-13.31,6.05-20.18,1.01-3.63.76-7.4.51-11.11-.61-8.96-1.22-17.92-1.83-26.88-.25-3.68-.49-7.43.66-10.98,1.85-5.72,7.06-10.26,12.27-14.36,10.99-8.65,22.86-16.56,35.44-23.62"/>
        <path d="M126.93,182.39c3.21,1.18,6.01,3.14,8.12,5.83v-2.65c-7.54,6.54-15.08,13.08-22.61,19.63-3.74,3.24-7.48,6.49-11.21,9.73-3.22,2.79-6.72,5.58-8.85,9.34s-2.4,8.4-2.13,12.76c.23,3.77.59,7.55,1.21,11.28,1.2,7.2,3.75,14.31,8.84,19.7,3.27,3.47,7.45,5.63,11.4,8.21,3.14,2.05,7.63,5.61,6.29,9.91l1.81-1.38c-8.1-.99-13.69-7.76-18.21-13.92-.74-1-2.6-1.42-3.24,0-2.39,5.31,1.9,9.15,3.51,13.88,1.06,3.11,1.03,7.57-2.69,8.76l2.12.86c-4.56-6.11-7.52-13.29-7.98-20.95-.1-1.73-2.59-2.71-3.49-.95-2.12,4.15-4.95,7.84-8.35,11.03-.83.78-1.69,1.53-2.58,2.25-.52.42-2.12,2.04-2.84,1.81-.38-.12-.54-1.43-.59-1.83-.12-.96-.05-1.96.15-2.9.89-4.28,3.54-7.99,5.21-11.98,2.03-4.85,1.92-9.82,1.57-14.98-.38-5.64-.77-11.28-1.15-16.93-.19-2.82-.38-5.64-.58-8.46-.18-2.63-.41-5.28-.19-7.91.39-4.7,2.99-8.48,6.26-11.72,3.51-3.48,7.54-6.46,11.49-9.4,9.5-7.08,19.48-13.5,29.81-19.31,2.1-1.18.22-4.42-1.89-3.24-9.93,5.58-19.53,11.73-28.7,18.49-4.32,3.18-8.71,6.39-12.61,10.08-3.66,3.47-6.92,7.69-7.81,12.78-.48,2.76-.42,5.53-.24,8.32.2,3.05.41,6.09.62,9.13.41,6.06.83,12.11,1.24,18.17.19,2.86.44,5.76.1,8.61-.3,2.49-1.23,4.81-2.32,7.05-2.02,4.13-4.7,8.35-4.75,13.09-.02,2.35.57,5.66,3.15,6.49,2.88.93,5.56-1.71,7.56-3.4,4.37-3.7,8.07-8.24,10.68-13.35l-3.49-.95c.5,8.3,3.53,16.19,8.49,22.84.49.65,1.27,1.14,2.12.86,4.63-1.49,6.52-5.98,5.93-10.58-.32-2.49-1.33-4.69-2.54-6.87-1.07-1.92-3.01-4.62-1.97-6.92h-3.24c5.44,7.41,11.8,14.6,21.45,15.78.82.1,1.58-.66,1.81-1.38,1.21-3.9-.71-7.75-3.41-10.52-2.92-3-6.78-4.87-10.24-7.14-6.33-4.13-10.08-10.34-11.92-17.57-.88-3.45-1.37-6.99-1.7-10.53-.36-3.94-.92-8.17.05-12.06,1.03-4.14,4.12-7.04,7.22-9.76,3.67-3.22,7.38-6.41,11.07-9.61,8.35-7.25,16.7-14.49,25.04-21.74.83-.72.59-1.9,0-2.65-2.51-3.21-5.99-5.41-9.78-6.8-2.27-.83-3.25,2.79-1,3.62h0Z"/>
      </g>
      <g>
        <path class="cls-6" d="M184.44,195.35c-2.18-2.75-3.31-6.04-3.21-9.31,16.61-3.18,33.22-6.37,49.83-9.55,4.14-.79,8.38-1.62,11.91-3.56,4.39-2.41,7.21-6.26,9.85-10.01,6.8-9.66,13.53-20.64,10.39-31.5-1.05-3.64-3.18-7.03-4.11-10.69s-.37-7.94,3.09-10.39c7.06,5.08,6.92,14.29,6.55,21.35,4.36-2.47,3.65-7.61,5.17-11.77,1.52-4.16,5.73-8.71,10.89-7.7-.28,7.72-3.02,15.36-7.86,21.99,6.47-3.58,3.9-2.14,11.63-2.97.53-.06,2.27.51,2.27.95,0,2.47.38,2.88,0,3.79-2.76,6.66-2.18,3.47-8.39,8.33-3.28,2.57-5.61,5.83-7.9,9.04-5.52,7.75-11.04,15.5-16.56,23.25-2.26,3.18-4.59,6.42-7.94,8.86-5.4,3.94-12.79,5.37-19.9,6.43-14.99,2.25-30.21,3.48-45.45,3.67"/>
        <path d="M186.06,194.41c-1.89-2.46-3-5.24-2.96-8.37l-1.38,1.81c9.69-1.86,19.38-3.71,29.07-5.57,4.8-.92,9.61-1.84,14.41-2.76s9.34-1.54,13.82-2.94c4.08-1.27,7.65-3.41,10.58-6.53,2.77-2.95,5.06-6.4,7.3-9.76,4.73-7.1,9.4-15.43,8.95-24.26-.12-2.39-.62-4.73-1.47-6.96s-1.99-4.45-2.82-6.74c-1.24-3.42-1.75-7.89,1.57-10.36h-1.89c6.11,4.52,5.97,12.91,5.62,19.73-.07,1.43,1.64,2.32,2.82,1.62,2.07-1.23,3.41-3.06,4.19-5.31.72-2.05.89-4.25,1.45-6.34,1.03-3.82,4.5-8.4,8.97-7.63l-1.38-1.81c-.33,7.65-3.14,14.86-7.61,21.04-1.16,1.6,1.04,3.41,2.57,2.57.88-.49,1.76-.98,2.65-1.44.7-.37.96-.53,1.46-.68.18-.05.35-.1.53-.15.52-.14-.22,0,.23-.04.55-.04,1.1-.06,1.65-.08.85-.04,1.71-.09,2.56-.16.52-.04,1.1-.19,1.61-.16.22.02.63.28.88.26l.11.06c-.49-.96-.69-1.08-.58-.36-.03.2.03.5.04.7.03.33.07.67.09,1,.04.63-.17.95-.57,1.85-.29.64-.59,1.28-.95,1.88-.08.13-.43.58-.16.27-.15.17-.3.32-.46.47.4-.35-.14.07-.25.14-.16.1-.33.19-.5.28-.58.31-1.15.61-1.71.95-4.29,2.59-7.54,6.24-10.45,10.26-3.5,4.83-6.93,9.72-10.39,14.58s-6.42,9.48-10.01,13.9c-3.32,4.09-7.39,6.75-12.41,8.32s-10.6,2.34-15.95,3.06c-13.45,1.83-27.02,2.8-40.59,2.98-2.41.03-2.42,3.78,0,3.75,12.93-.18,25.84-1.08,38.67-2.73,10.97-1.41,23.6-2.48,31.55-11.13,1.95-2.12,3.6-4.5,5.27-6.85,1.9-2.67,3.81-5.35,5.71-8.02,3.67-5.16,7.32-10.33,11.02-15.47,2.9-4.04,6.17-7.68,10.6-10.06.89-.48,1.78-.93,2.48-1.68,1.13-1.21,1.74-2.86,2.37-4.36.37-.88.56-1.65.49-2.61-.09-1.22.15-2.86-.72-3.82-1.71-1.9-4.54-1.23-6.74-1.11-1.38.08-2.84,0-4.19.39-1.83.53-3.55,1.65-5.2,2.57l2.57,2.57c4.85-6.71,7.76-14.65,8.12-22.93.03-.75-.6-1.67-1.38-1.81-5.44-.94-10.19,2.6-12.5,7.37-1.04,2.15-1.42,4.43-1.89,6.75s-1.06,4.32-3.12,5.55l2.82,1.62c.44-8.44-.1-17.52-7.47-22.97-.48-.36-1.41-.36-1.89,0-2.97,2.2-4.5,5.49-4.41,9.18.1,4.15,2.19,7.77,3.7,11.53s2,7.98,1.13,12.13-2.76,8.21-4.94,11.96-4.69,7.45-7.32,10.95c-2.3,3.06-5.02,5.79-8.54,7.42-4.11,1.91-8.82,2.5-13.24,3.35-4.8.92-9.61,1.84-14.41,2.76-10.83,2.08-21.66,4.15-32.49,6.23-.81.15-1.37,1.03-1.38,1.81-.05,3.73,1.2,7.32,3.47,10.26.62.81,1.61,1.22,2.57.67.79-.45,1.29-1.76.67-2.57h0Z"/>
      </g>
      <g>
        <path class="cls-6" d="M148.73,162.22l1.97-9.5c.15-.74.34-1.53.97-2.08.74-.64,1.9-.78,2.97-.88,2.95-.29,5.9-.58,8.85-.87.59,3.34,1.18,6.68,1.77,10.03.14.82.32,1.69,1.01,2.29.8.7,2.06.84,3.21.94,7.26.62,14.65.94,21.59,2.8,6.94,1.86,13.56,5.52,16.49,11,1.68,3.14,2.05,6.63,2.39,10.05,2.37,23.49,4.73,47.2.91,70.57-1.48,9.07-3.89,18.04-7.19,26.79-2.59,6.86-6,13.9-12.69,18.54-9.59,6.65-25.22,6.4-34.49-.54-4.25-3.18-7.09-7.4-9.85-11.54-4.48-6.72-9.02-13.56-10.94-21.06-1.52-5.94-4.52-13.44-6.39-20.26-1.49-5.46-3.28-11.39-5-17.53-3.84-13.72-5.85-23.09-8.04-37.06-.42-2.69-.78-5.44-.11-8.09,1.94-7.71,11.46-12.14,19.44-16.52,4.61-2.53,9.06-5.43,12.07-9.25s4.38-8.72,2.51-13"/>
        <path d="M150.54,162.72l1.18-5.7.59-2.85c.12-.58.14-1.59.54-2.06.34-.41,1.31-.42,1.79-.48.98-.11,1.97-.19,2.95-.29,1.97-.19,3.93-.39,5.9-.58l-1.81-1.38c.62,3.54,1.01,7.25,1.91,10.73.96,3.71,4.6,3.8,7.78,4.05,7.08.56,14.3.96,21.12,3.14,5.21,1.67,10.77,4.58,13.45,9.58,1.57,2.93,1.86,6.34,2.18,9.59.38,3.73.75,7.46,1.1,11.19,1.38,14.81,2.36,29.72,1.38,44.59-.96,14.48-4.02,28.84-9.42,42.33-2.17,5.42-5.07,10.67-9.59,14.48-4.14,3.49-9.54,5.27-14.88,5.67s-10.97-.41-15.8-2.87c-5.62-2.86-9.25-7.91-12.66-13.03-3.77-5.65-7.71-11.41-9.93-17.88-1.01-2.95-1.72-6-2.69-8.97-1.07-3.26-2.22-6.51-3.25-9.78-2.13-6.72-3.95-13.58-5.87-20.37s-3.56-13.04-4.99-19.65-2.67-13.14-3.59-19.77c-.43-3.09-.44-6.17,1.18-8.93,1.26-2.15,3.16-3.92,5.15-5.39,4.77-3.53,10.26-5.9,15.31-8.97,5.37-3.27,10.73-7.58,12.67-13.81.89-2.87.89-6.02-.27-8.81-.39-.93-1.25-1.61-2.31-1.31-.88.25-1.7,1.36-1.31,2.31,2.59,6.25-1.97,12.11-6.74,15.74-5.06,3.85-10.99,6.3-16.36,9.66-4.55,2.85-9.2,6.54-10.79,11.91-1.06,3.6-.37,7.36.21,10.98s1.16,7.02,1.82,10.51c2.61,13.74,6.64,27.08,10.41,40.53,1.87,6.66,4.27,13.13,6.24,19.75.94,3.16,1.77,6.28,3.12,9.3,1.47,3.3,3.29,6.43,5.23,9.48,3.57,5.63,7.19,11.8,12.3,16.19,4.42,3.8,9.9,5.93,15.65,6.69s11.54.22,16.85-1.84c5.69-2.22,10.29-6.15,13.67-11.22,3.58-5.36,5.78-11.64,7.76-17.73,2.31-7.13,4.06-14.45,5.19-21.87,2.31-15.15,2.16-30.5,1.09-45.75-.54-7.64-1.29-15.27-2.06-22.9-.34-3.34-.59-6.77-1.82-9.92-1.11-2.85-2.93-5.32-5.26-7.3-4.89-4.17-11.16-6.37-17.4-7.54-3.58-.67-7.22-1.05-10.84-1.36-1.9-.16-3.8-.3-5.7-.46-1.21-.1-3.29.14-3.69-1.26-.46-1.6-.61-3.36-.9-5-.34-1.91-.67-3.82-1.01-5.73-.13-.74-1.05-1.45-1.81-1.38-2.46.24-4.92.48-7.38.72-1.93.19-4.26.16-5.77,1.58-1.43,1.34-1.57,3.47-1.94,5.28l-1.48,7.13c-.49,2.36,3.13,3.36,3.62,1h0Z"/>
      </g>
      <g>
        <path class="cls-6" d="M144.58,144.7c-14.01-13.94-24.6-30.18-30.96-47.47-2.8-7.62-4.79-15.79-2.38-23.51,4.51-14.42,23.08-23.01,40.96-25.59,12.8-1.85,28.8-.1,34.22,9.58,2.31,4.12,2.13,8.86,1.77,13.39-1.82,22.48-7.17,44.77-15.88,66.14-1.23,3.01-2.58,6.08-5.15,8.44-3.73,3.43-9.93,4.9-15.32,3.62s-9.68-5.23-10.61-9.76"/>
        <path d="M145.91,143.37c-13.8-13.77-25.12-30.52-31.34-49.08-1.66-4.95-2.87-10.14-2.44-15.4.34-4.12,1.92-7.98,4.35-11.3,4.66-6.37,12.07-10.57,19.31-13.33,7.89-3.01,16.42-4.83,24.87-4.91,7.14-.06,15.75.86,21.32,5.83,3.15,2.81,4.45,6.6,4.55,10.77.11,5.1-.63,10.3-1.28,15.35-1.38,10.69-3.6,21.29-6.54,31.66-1.47,5.16-3.12,10.27-4.95,15.32-.92,2.54-1.88,5.06-2.89,7.56-.87,2.16-1.76,4.32-3.07,6.25-4.82,7.1-16.38,7.71-22.22,1.6-1.26-1.32-2.13-2.88-2.52-4.66-.52-2.35-4.14-1.36-3.62,1,2.15,9.68,13.91,13.38,22.49,10.66,4.81-1.52,8.37-4.79,10.59-9.29,2.44-4.94,4.26-10.29,6.05-15.49,3.76-10.91,6.7-22.12,8.73-33.48,1.02-5.69,1.82-11.42,2.4-17.17.53-5.26,1.33-11-.54-16.09-2.96-8.02-11.38-11.68-19.28-12.91-8.94-1.4-18.11-.45-26.84,1.78s-17.6,5.95-24.54,11.95c-3.07,2.65-5.78,5.87-7.56,9.53-2.25,4.61-2.99,9.74-2.46,14.84.58,5.56,2.33,10.89,4.38,16.06,1.9,4.8,4.09,9.49,6.56,14.03,5.07,9.3,11.31,17.96,18.39,25.83,1.77,1.96,3.59,3.87,5.46,5.74,1.71,1.71,4.36-.94,2.65-2.65h0Z"/>
      </g>
      <g>
        <path d="M126.54,78.64c-.71-.89-2.52-.69-3.36.13s-.94,1.97-.94,3.04c0,5.63,1.98,11.26,5.67,16.02,1.09,1.41,2.7,2.89,4.72,2.73,2.94-.22,3.74-3.4,3.75-5.82.02-3.28.02-6.63-1.29-9.73s-4.18-5.96-8.07-6.71"/>
        <path d="M127.86,77.31c-1.56-1.62-4.45-1.43-6.01.13-1.76,1.75-1.6,4.48-1.38,6.75.49,5.03,2.35,9.88,5.33,13.95,1.37,1.87,3.05,3.75,5.45,4.18,2.19.4,4.29-.44,5.57-2.27,1.06-1.53,1.39-3.49,1.42-5.32.04-2.59-.02-5.23-.58-7.76-1.13-5.1-4.95-9.38-10.15-10.48-2.35-.5-3.36,3.12-1,3.62,2.98.63,5.39,2.56,6.7,5.3.8,1.66,1.09,3.56,1.21,5.38.1,1.65.23,3.43,0,5.08-.11.83-.37,1.93-1.03,2.48-1.03.86-2.41.02-3.2-.75-2.5-2.43-4.2-6.07-5.16-9.37-.54-1.86-.86-3.75-.91-5.68-.02-.64-.19-1.87.32-2.37.16-.16.62-.36.77-.2,1.68,1.74,4.33-.91,2.65-2.65h0Z"/>
      </g>
      <g>
        <path d="M171.18,75.23c-7.41,5.13-11.32,13.44-10.03,21.32.25,1.5.78,3.13,2.32,3.98,2.07,1.14,5.06.23,6.55-1.41s1.88-3.76,2.22-5.78c.65-3.9,1.31-7.79,1.96-11.69.22-1.31.42-2.72-.37-3.87s-2.99-1.7-4.01-.69"/>
        <path d="M170.24,73.62c-7.5,5.27-13.22,15-10.69,24.41.63,2.32,2.26,4.26,4.69,4.75,2.24.45,4.63-.27,6.39-1.67,2-1.6,2.85-4.06,3.3-6.5.55-3.01,1.02-6.03,1.52-9.04.47-2.78,1.7-6.39-.13-8.91-1.57-2.17-4.78-2.56-6.81-.88-1.86,1.54.81,4.18,2.65,2.65-.15.13.14-.01.37.04.18.04.4.09.55.2.63.45.48,1.44.39,2.11-.27,2.17-.72,4.33-1.09,6.48s-.7,4.38-1.11,6.55c-.3,1.61-.72,3.46-2.11,4.5-.98.73-2.59,1.21-3.74.62-1.27-.66-1.46-2.5-1.57-3.77-.27-3.19.31-6.43,1.67-9.33,1.7-3.61,4.35-6.67,7.6-8.96,1.96-1.38.09-4.63-1.89-3.24h0Z"/>
      </g>
      <path d="M147.06,129.44c2.38,1.93,5.4,2.4,8.37,1.9,2.58-.44,5.37-1.93,6.51-4.39.41-.89.28-2.06-.67-2.57-.83-.44-2.12-.28-2.57.67-.1.23-.22.44-.36.65-.07.11-.33.38,0,.02-.07.08-.14.16-.21.24-.16.17-.34.33-.51.49-.3.27.28-.18-.03.03-.11.07-.22.15-.33.22-.23.15-.47.28-.71.4-.1.05-.21.1-.31.15-.13.06.33-.11-.07.02-.52.18-1.04.33-1.58.43-.11.02-.56.08-.07.02-.12.01-.24.03-.36.04-.27.02-.53.04-.8.04-.29,0-.58,0-.87-.03-.09,0-.57-.07-.07,0-.14-.02-.28-.04-.42-.07-.51-.1-.99-.25-1.47-.43.45.18.03,0-.05-.04-.12-.06-.24-.13-.36-.2s-.23-.15-.34-.22c-.32-.2.27.23-.05-.03-.76-.62-1.92-.8-2.65,0-.63.69-.81,1.99,0,2.65h0Z"/>
      <path d="M177.69,79.33l1.81-3.79c.22-.46.33-.94.19-1.44-.12-.43-.46-.91-.86-1.12-.44-.23-.96-.35-1.44-.19-.44.14-.91.43-1.12.86l-1.81,3.79c-.22.46-.33.94-.19,1.44.12.43.46.91.86,1.12.44.23.96.35,1.44.19.44-.14.91-.43,1.12-.86h0Z"/>
      <path d="M178.27,84.27l2.8-3c.34-.36.55-.83.55-1.33,0-.46-.2-1.01-.55-1.33s-.83-.57-1.33-.55-.98.18-1.33.55l-2.8,3c-.34.36-.55.83-.55,1.33,0,.46.2,1.01.55,1.33s.83.57,1.33.55.98-.18,1.33-.55h0Z"/>
      <path d="M121.33,81.06c.65-.28-.05,0-.23.05-.21.05-.42.09-.63.12l.5-.07c-.49.06-.98.05-1.46,0l.5.07c-.4-.05-.79-.14-1.17-.27-.08-.03-.16-.06-.24-.09-.31-.12.42.2.14.06-.17-.09-.34-.17-.51-.27-.07-.04-.14-.09-.2-.13-.34-.23.2.17.09.08-.13-.11-.26-.22-.37-.34-.06-.06-.12-.14-.18-.2-.1-.11.31.44.09.11-.1-.14-.18-.3-.25-.45-.18-.4-.71-.75-1.12-.86-.45-.12-1.05-.07-1.44.19s-.75.64-.86,1.12c-.12.52-.03.96.19,1.44.7,1.53,2.29,2.54,3.84,3.02.78.24,1.64.36,2.46.33.99-.03,1.87-.27,2.77-.66.4-.17.75-.72.86-1.12.12-.45.07-1.05-.19-1.44s-.64-.75-1.12-.86c-.52-.12-.96-.02-1.44.19h0Z"/>
      <path d="M122.69,77.1l-2.76-2.28c-.17-.18-.37-.31-.6-.39-.22-.12-.46-.17-.72-.16-.46,0-1.01.2-1.33.55s-.57.83-.55,1.33c.02.47.17,1.01.55,1.33l2.76,2.28c.17.18.37.31.6.39.22.12.46.17.72.16.46,0,1.01-.2,1.33-.55s.57-.83.55-1.33c-.02-.47-.17-1.01-.55-1.33h0Z"/>
      <rect class="cls-1" x="115.78" y="21.04" width="0" height="0" transform="translate(231.56 42.07) rotate(180)"/>
      <ellipse class="cls-10" cx="243.2" cy="31.17" rx="7.12" ry="5.83"/>
    </g>
  </g>
</svg>